<?xml version="1.0" encoding="UTF-8"?>
<svg id="Livello_2" data-name="Livello 2" xmlns="http://www.w3.org/2000/svg" viewBox="0 0 1428.68 255.29">
  <defs>
    <style>
      .cls-1 {
        fill: #311b04;
      }
    </style>
  </defs>
  <g id="Livello_1-2" data-name="Livello 1">
    <g>
      <g>
        <path class="cls-1" d="M1319.92,55.89c-1.04,4.63-5.16,16.99-7.66,28.55,4.46-.2,9.04.28,13.48,0,11.28-.72,24.52-7.85,31.4,5.35,4.35,8.36-.04,16.45-3.82,23.94-10.87,21.55-25.51,42.78-32.47,66.27-.84,2.84-2.89,9.65,1.01,10.51,5.43,1.2,19-5.53,23.54-8.92,5.79-4.33,4.11-5.48,5.59-11.63,1.6-6.67,3.34-13.37,5.32-19.94,4.85-16.07,13.29-33.02,17.33-48.68.44-1.72,1.24-4.52,1.15-6.19-.2-3.95-5.85-10.53,3.2-11.28,2.56-.21,9.76.36,12.55.65,9.01.94,21.8,6.97,21.61,17.41-.13,7.6-16.02,32.11-20.41,40.49-3.75,7.18-7.5,14.57-10.71,22.01-3.56,8.25-7.22,16.79-7.97,25.84.11.52,1.14.73,1.62.81,6.14,1,18.37-7.04,23.63-10.53,2.58-1.71,15.65-12.71,17.84-10.57,0,4.23-3.31,7.91-5.75,11.18-10.94,14.58-33,29.42-51.47,19.93-5.67-2.92-7.2-6.35-9.11-12.18-1.76-.3-4.37,2.94-5.81,3.94-11.17,7.83-25.78,16.02-39.05,8.24-11.5-6.74-9.73-18.92-6.78-29.96,5.29-19.8,12.72-39.21,17.82-59.1.54-1.28.57-6.92-1.18-6.92h-12.34c-4.44,20.07-11.54,43.31-30.25,54.42-4,2.37-12.54,4.72-15.08,6.74-2.46,1.94-7,10.97-9.8,14.31-19.37,23.13-65.47,34.8-79.88.69-5.26-12.46-3.24-25.74-2.2-38.84-.45-.52-7.2,4.14-8.22,4.69-1.08.59-3.15.76-3.69,1.19-.76.61-7.89,14.4-9.67,17.02-12.96,19.06-33.64,37.87-58.49,35.63-7.97-.72-13.9-4.99-20.96-8.03-6.67,20.27-19.31,39.06-20.17,61.07-3.69,3.05-11.53.12-14.51-3.14-10.49-11.51,2.74-39.59,5.39-52.75-9.75,2.94-21.01,6.36-28.42-2.87-3.3-4.11-3.9-8.7-4.59-13.79-10.25,7.54-18.51,18.07-32.21,19.45-24.73,2.5-31.4-20.06-30.09-40.42,2.36-36.76,33.48-82.41,72.65-85.22,13.4-.96,49.45,1.81,42.63,23.11-1.09,3.41-7.39,14.17-11.51,12.95-1.64-.49-6.05-6.73-9.41-8.41-22.47-11.22-46.55,13.96-56.54,31.66-6.91,12.25-13.8,33.67-11.91,47.69.77,5.69,4.44,5.7,9.12,4.06,9.67-3.39,21.38-19.53,26.14-28.39,5.56-10.35,6.01-20.95,11.66-31.4,5.62-10.41,12.27-17.55,25.04-13.93,3.73,1.06,13.62,6.51,13.96,10.68.15,1.83-6.11,8.88-7.57,11.15-5.24,8.13-11.05,21.81-14.95,30.97-1.88,4.42-5.98,13.83-6.49,18.23-.65,5.57,4.93,3.32,8.21,2.43,2.62-.71,8.62-2.73,10.29-4.64,7.98-18,14.53-36.74,21.87-55.06,4.03-10.06,16.17-33.11,15.13-42.73-.12-1.07-2.28-7.24-.23-7.24h17.8c.28,0,4.59,1.35,5.28,1.61,5.28,2.02,10.01,6.27,10.51,12.16.47.5,5.75-4.47,6.62-5.14,8.7-6.66,20.46-12.3,31.58-8.66,15.04,4.91,15.11,29.37,13.38,42.14-.76,5.64-2.9,10.86-3.64,16.45,9.42-1.44,11.65-10.96,15.29-18.01,7.53-14.59,18.87-32.9,35.35-38.7,13.7-4.82,24.46,3.38,25.99,17.09,9.92-4.75,21.7-4.65,28.94,4.64,10.97,14.1,1.28,37.85-1.96,53.33,19.52-6.07,19.62-32.49,24.7-49.08-.11-1.26-5.28-3.82-6.61-4.89-7.26-5.82-10.88-19.9-12.22-26.52-.45-2.2-.54-4.46-.28-6.69l.26-2.26c.24-2.02.66-4.01,1.28-5.94.85-2.67,2.14-6.44,3.3-8.71,2.24-4.37,8.12-11.16,8.12-11.16,0,0,3.72-3.41,9.23-6.08,5.51-2.68,8.89-2.44,8.89-2.44,0,0,11.61-.12,15.76,3.31,2.97,2.46,4.07,4.54,5,9.5.92,4.96.62,8.94-.4,13.52ZM1283.17,65.75c.45,6.24,2.5,13.05,9.57,14.11-.23-4.71,6.83-24.21-1.42-24.62,0,0-2.53-.11-5.47,3.73-2.94,3.84-2.67,6.78-2.67,6.78ZM1233.04,97.08c-3.17-.31-6.33,1.19-9.01,2.76-21.37,12.46-34.7,52.65-32.92,76.2,1.13,14.98,11.36,16.37,22.36,8.54,7.43-5.29,11.23-13.64,16.62-20.72.15-.96-6.09-5.53-7.19-6.69-13.97-14.71-6.79-42.02,5.81-55.51.59-.64,5.25-3.77,4.32-4.57ZM1117.33,105.34c-7.44,9.17-7.89,31.31,5.76,35.36,1.06-.23,6.55-18.22,7.02-20.55,1.28-6.41,2.02-14.47-3.68-18.99-3.2,0-7.09,1.7-9.1,4.18ZM1236.96,146.9c1.77-1.03,7.62-18.69,7.99-21.56.48-3.74,1.04-10.53-4.66-7.53-5.37,2.83-8.3,12.88-7.81,18.58.1,1.16,2.45,10.27,2.87,10.62.1.08,1.3.07,1.62-.11ZM1095.27,132.09c-1.34-1.38-3.79,3.68-4.32,4.58-2.7,4.64-4.32,9.79-6.67,14.57-4.47,9.08-24.13,39.98-.79,37.67,14.87-1.47,26.95-22.48,33.48-34.27l.11-1.31c-10.07-2.84-21.03-9.88-21.81-21.25Z"/>
        <path class="cls-1" d="M741.04,124.86c-4.89,9.01-8.59,23.58-8.52,28.9.07,5.32-.24,16.55,2.66,23.88l1.22,3.09c1.64,4.15,3.85,8.07,6.67,11.53,12.26,15.07,30.87,23.01,49.99,26.74,50.31,9.83,109.01-11.8,136.31-56.04,20.51-33.23,14.2-76.68-19.8-97.78-17.56-10.9-38.56-14.06-58.81-16.77-.97-.13-1.09-1.48-.16-1.79,7.6-2.5,15.76-3.63,23.54-5.48,14.43-3.43,28.78-7.58,43.58-9.39.83-.1,1.32.85.81,1.51,0,0,0,.01-.01.02-3.49,4.59-9.37,7.57-12.8,13.6-8.63,15.17,14.37,19.5,25.35,18.63.55-.04.94-.55.83-1.09-.14-.65-.35-1.27-.31-1.99.49-9.65,16.5-29.32,21.2-39.09,1.4-2.9,1.76-4.75,1.46-7.99-.46-4.83-3.05-13.88-8.41-15.12-6.51-1.51-27.07,4.87-34.48,6.93-28.06,7.79-57.76,16.93-85.1,26.84-3.25,1.18-8.43,4.17-11.31,4.77-7.24,1.5-14.8-3-20.98,2.55-5.36,4.81-6.83,23.78-5.31,30.56.18.81.76,2.95,1.38,3.35,2.59,1.67,9.89-1.27,13.18-1.7,37.26-4.88,122.33.28,109.22,57.55-11.92,52.08-92.72,71.32-137.82,59.32-43.44-11.55-37.03-52.89.14-68.99,24.48-10.61,70.46-8.68,93.94,4.19,5.19,2.84,13.02,8.44,12.92,15,0,.62.62,1.06,1.2.86,7.25-2.49,16.46-17.5,17.04-23.58,1.28-13.4-26.6-25.9-37.16-28.76-39.28-10.63-93.62-1.18-119.51,32.28"/>
        <path class="cls-1" d="M1393.91,31.2c3.09-3.03,18.47-.65,22.8.75,16.42,5.33,13.01,18.11,7.01,30.5-2.4,4.96-11.88,20.21-17.17,21.29-6.18,1.26-11.7-3.04-16.71-5.99-.28-4.15-.07-8.35.56-12.46,1.09-7.06,4.52-14.66,4.54-21.92,0-2.56-2.41-10.82-1.03-12.18Z"/>
      </g>
      <path class="cls-1" d="M689.59,164.17c-3.66,5.36-9.92,10.84-17.16,15.34-22.12,13.74-53.42,18.41-48.11-16.95.35-2.35,2.6-3.95,4.97-3.77,36.96,2.73,61.38-13.99,64.44-36.48.93-6.85.92-18.47-3.38-25.55-7.08-11.16-21.2-12.9-32.18-10.07-49.17,12.65-93.9,131.46-7.54,115.69,20.21-3.8,40.03-24.51,43.53-33.99,2.34-5.01-1.71-8.13-4.57-4.21ZM667.34,109.52c13.41,14.94-29.56,38.71-34.96,34.01l-.42-.35c-3.31-9.06,24.63-39.71,35.39-33.66Z"/>
      <g>
        <path class="cls-1" d="M418.53,23.08c6.67-.49,13.6,1.07,19.82,3.43,5.31,2.02,11.71,5.5,11.18,12.07,2.3.1,4.19-1.12,6.51-1.11,4.31.02,13.49,1.42,17.21,3.5,4.01,2.24,7.51,6.43,7.64,11.18.21,7.91-13.29,34.25-21.12,36.55-3.8,1.11-11.13-1.61-13.9-4.27-2.23-2.14-.73-11.18-.19-14.4,1.47-8.69,5.41-17.19,4.42-26.29l-56.35,109.26c-2.43,6.26-5.53,12.28-7.79,18.62-1.17,3.29-5.22,13.27-3.07,15.98,2.49,3.14,13.62-2.56,16.51-4.26,7.51-4.43,4.95-5.06,6.78-12.73,2.42-10.16,5.47-19.63,9.05-29.41,3.58-9.8,14.86-32.5,14.83-41.47-.01-3.18-2.22-6.27-.64-9.21,3.64-3.58,21.67.27,26.24,2.49,10.37,5.04,8.86,13.81,4.6,22.62-5.69,11.78-13.67,23.53-19.67,35.44-3.77,7.48-13.97,27.36-14.62,34.75-.79,8.96,8.1,2.6,12.45.39,3.14-1.6,9.22-4.63,11.86-6.51,3.85-2.74,2.12-3.61,2.08-7.06-.51-37.24,24.28-83.73,65.16-86.44,13.28-.88,41.34,2.25,38.06,21.41-.61,3.57-6.55,12.95-10.54,13.06l-.7-.09c-2.32-4.03-6.36-8.22-10.97-9.42-31.97-8.35-52.99,34.32-56.7,59.9-.64,4.43-3,20.38,4.07,20.18,11.14-.31,24.62-21.43,28.4-30.76,5.16-12.73,6.88-42.53,27.88-39.77,4.13.54,16.65,7.5,15.87,12.28-.21,1.26-2.42,2.19-3.48,3.46-4.45,5.36-12.16,24.23-15.03,31.47-1.3,3.28-7.63,20.56-6.53,22.77.32.46.76.93,1.31,1.08,4.5,1.19,22.57-9.5,26.76-12.64,1.66-1.24,9.43-9.09,10.71-7.94-.1.67.36,1.44.31,2.03-.14,1.52-5.59,9.61-6.9,11.19-13.98,16.89-45.4,35.11-51.09,1.15-7.95,6.7-14.75,15.32-25.52,17.53-13.13,2.7-23.53-3.27-27.88-15.82-4.82,2.41-8.63,6.36-13.31,9.08-13.19,7.66-28.83,10.77-37.2-5.04-11.42,10.77-34.02,17.44-40.76-1.72-4.76,2.9-9.49,6.72-14.65,8.88-11.84,4.94-28.36,4.77-31.5-10.39-.3-1.44.51-3.23-.92-4.23-20.41,17.95-60.72,31.22-74.06-1.74-6.32,5.7-11.59,10.84-19.59,14.28-14.7,6.31-34.86,6.07-34.1-14.58,1.04-28.46,22.18-58.03,28.17-85.5-4.18-11.02,2.31-10.74,11.17-10.05,9.82.77,23.52,4.19,22.7,16.37-.57,8.45-16.43,31.7-21.36,40.64-5.79,10.51-13.52,23.74-17.28,34.96-.49,1.46-2.8,8.44-1.81,9.11,4.61,1.67,8.72-.82,12.68-2.83,6.02-3.05,11.65-7.1,17.12-11.01.34-3.08-.38-6.17-.31-9.49.65-30.74,19.13-68.98,49.99-79.17,12.67-4.19,31.88-2.44,40.72,8.6,11.48,14.34-1.25,31.87-17.15,33.51-1.11-.69.58-7.15.56-8.83-.16-11.05-7.84-13.48-17.26-9.76-20.02,7.9-39.47,58.7-27.47,76.82,3.64,5.5,9,5.51,15.11,4.97,9.82-.88,30.73-11.01,34.75-20.35,1.58-3.68,2.03-8.34,3.28-12.22,1.84-5.72,3.82-11.44,5.88-17.08,4.54-12.45,15.68-32.86,14.93-45.33-.13-2.22-2.53-5.83.98-6.47,7.89-1.44,18.37-.33,25.46,3.57,5.23,2.88,8.48,6.84,7.38,13.16-8.4,24.47-27.3,47.24-35.96,71.39-4.65,12.98-3.22,15.78,9.63,9.05,2.54-1.33,8.75-4.81,10.75-6.47,3.14-2.6,3.33-9.88,4.44-13.93,10.29-37.43,30.32-75.64,44.76-111.95,1.66-4.18,7.19-17.29,7.19-20.93v-9.47Z"/>
        <path class="cls-1" d="M241,34.7c9.59-1.78,28.92,1.55,29.38,14.01.17,4.76-4.73,14.79-7.12,19.16-2.76,5.04-11.19,18.4-17.31,18.75-2.72.16-12.29-4.22-12.82-7.01-1.6-8.45,2.66-15.96,4.3-23.8.64-3.04,1.92-9.56,1.94-12.41.03-3.35-3.65-7.71,1.64-8.69Z"/>
        <path class="cls-1" d="M367.3,37.01c12.53-1.86,31.28,2.53,27.41,18.8-1.81,7.59-14.02,31.9-22.45,32.71-2.86.27-12.88-4.32-13.42-7.18-1.45-7.7,2.77-16.44,4.3-23.8,1.29-6.21,2.11-12.38.36-18.54.38-1.37,2.53-1.79,3.8-1.98Z"/>
        <path class="cls-1" d="M8.04,127.7C3.43,136.19-.06,149.93,0,154.95s-.23,15.6,2.51,22.52l1.15,2.91c1.55,3.91,3.63,7.61,6.29,10.87,11.56,14.21,29.1,21.69,47.14,25.21,47.44,9.27,102.78-11.13,128.53-52.84,19.34-31.33,13.39-72.3-18.67-92.2-16.56-10.28-36.36-13.26-55.45-15.81-.91-.12-1.03-1.4-.16-1.69,7.17-2.36,14.86-3.42,22.2-5.17,13.6-3.24,27.14-7.15,41.09-8.86.78-.1,1.25.8.76,1.43,0,0,0,.01-.01.02-3.29,4.33-8.84,7.14-12.07,12.83-8.14,14.31,13.55,18.39,23.9,17.57.51-.04.89-.52.78-1.03-.13-.61-.33-1.2-.29-1.88.47-9.1,15.55-27.65,19.99-36.86,1.32-2.74,1.66-4.48,1.37-7.53-.44-4.56-2.88-13.09-7.93-14.26-6.13-1.43-25.53,4.59-32.51,6.53-26.45,7.35-54.46,15.96-80.25,25.31-3.07,1.11-7.95,3.93-10.66,4.5-6.82,1.41-13.95-2.83-19.79,2.41-5.06,4.54-6.44,22.43-5.01,28.82.17.77.72,2.79,1.3,3.16,2.44,1.57,9.33-1.2,12.43-1.6,35.13-4.6,115.35.26,102.98,54.27-11.24,49.11-87.43,67.25-129.96,55.94-40.96-10.89-34.92-49.87.13-65.05,23.08-10,66.44-8.18,88.58,3.95,4.89,2.68,12.28,7.96,12.19,14.14,0,.58.58,1,1.13.81,6.84-2.35,15.52-16.5,16.07-22.23,1.21-12.63-25.08-24.42-35.04-27.12-37.04-10.03-88.28-1.11-112.69,30.44"/>
      </g>
    </g>
  </g>
</svg>