<!DOCTYPE svg PUBLIC "-//W3C//DTD SVG 1.1//EN" "http://www.w3.org/Graphics/SVG/1.1/DTD/svg11.dtd">
<!-- Uploaded to: SVG Repo, www.svgrepo.com, Transformed by: SVG Repo Mixer Tools -->
<svg fill="#B8860B" height="800px" width="800px" version="1.1" id="Layer_1" xmlns="http://www.w3.org/2000/svg" xmlns:xlink="http://www.w3.org/1999/xlink" viewBox="0 0 512 512" xml:space="preserve">
<g id="SVGRepo_bgCarrier" stroke-width="0"/>
<g id="SVGRepo_tracerCarrier" stroke-linecap="round" stroke-linejoin="round"/>
<g id="SVGRepo_iconCarrier"> <g> <g> <path d="M434.21,128.712l-4.216-4.215l82.005-95.232L482.738,0l-95.233,82.006l-4.217-4.217 c-11.526-11.526-26.851-17.875-43.153-17.875c-13.741,0-26.787,4.51-37.451,12.831L289.54,59.601L0.001,349.144L162.857,512 l289.54-289.538l-13.148-13.148C457.864,185.392,456.186,150.688,434.21,128.712z M481.966,20.718l9.317,9.318l-72.062,83.685 l-20.941-20.94L481.966,20.718z M418.092,209.645l-0.001,0.001l12.816,12.815l-268.05,268.05L21.49,349.144l10.746-10.746 l110.916,110.916l10.745-10.746L42.981,327.653l246.56-246.562l7.442,7.443l-0.001,0.002l33.208,33.208l10.744-10.745 l-27.386-27.385c7.711-5.517,16.917-8.502,26.588-8.502c12.242,0,23.751,4.767,32.408,13.425l3.415,3.415l4.663,4.664 l42.844,42.843c16.04,16.038,17.673,41.101,4.92,58.988l-73.122-73.122l-10.745,10.746L418.092,209.645z"/> </g> </g> </g>
</svg>