<svg width="151" height="115" viewBox="0 0 151 115" fill="none" xmlns="http://www.w3.org/2000/svg">
<path d="M40.9796 104.65C35.9142 103.111 30.8502 103.577 27.6847 105.538C28.885 108.815 32.6048 111.933 37.672 113.465C42.7351 115 47.8005 114.538 50.9649 112.575C49.7643 109.299 46.0436 106.176 40.9796 104.65Z" fill="#ECB733"/>
<path d="M37.1271 99.4564C39.6109 97.0073 40.835 92.7596 40.0088 88.2514C39.1838 83.7451 36.5271 80.1823 33.3279 78.7405C30.8465 81.1873 29.6169 85.4372 30.4451 89.9452C31.2704 94.4495 33.9297 98.0184 37.1271 99.4564Z" fill="#ECB733"/>
<path d="M20.0749 86.0727C15.7023 83.4413 10.7403 82.7418 7.14148 83.9169C7.3114 87.3587 9.92937 91.2145 14.3019 93.8463C18.6733 96.4755 23.6342 97.175 27.2345 95.9979C27.0634 92.5541 24.4466 88.7042 20.0749 86.0727Z" fill="#ECB733"/>
<path d="M23.2591 62.1575C20.5429 64.0689 18.6984 67.8573 18.723 72.1809C18.7468 76.5046 20.6323 80.2193 23.3698 82.0259C26.0868 80.1103 27.9305 76.3261 27.9058 72.0005C27.8812 67.6788 25.9954 63.9664 23.2591 62.1575Z" fill="#ECB733"/>
<path d="M16.1896 55.1366C19.5327 54.4886 22.9812 51.8015 25.008 47.882C27.0397 43.9626 27.1045 39.8563 25.506 37.1323C22.1609 37.7826 18.7115 40.4674 16.6847 44.3913C14.6551 48.3066 14.5871 52.4149 16.1896 55.1366Z" fill="#ECB733"/>
<path d="M11.2948 45.2321C13.8149 43.3081 15.4218 39.6264 15.2176 35.4916C15.0164 31.3565 13.0579 27.8739 10.3599 26.2371C7.83978 28.1591 6.22933 31.8386 6.43499 35.9756C6.63392 40.1085 8.59594 43.5952 11.2948 45.2321Z" fill="#ECB733"/>
<path d="M36.5514 18.3406C33.47 18.0473 29.6274 19.4992 26.5955 22.3874C23.5644 25.2753 22.1532 28.8278 22.6275 31.6028C25.7113 31.8961 29.5515 30.4442 32.5826 27.556C35.6137 24.6684 37.0261 21.1199 36.5514 18.3406Z" fill="#ECB733"/>
<path d="M27.3769 15.4238C28.6891 11.9248 28.334 8.45839 26.7165 6.31738C23.9661 7.18691 21.335 9.78153 20.0207 13.2828C18.7074 16.7777 19.0633 20.246 20.6834 22.3873C23.4312 21.5136 26.0623 18.9232 27.3769 15.4238Z" fill="#ECB733"/>
<path d="M42.2632 8.60222C45.0986 5.92548 46.4313 2.62725 45.9989 0.0368175C43.1334 -0.24418 39.5536 1.09126 36.715 3.76995C33.8829 6.44446 32.5537 9.74689 32.9814 12.3309C35.8493 12.6161 39.4299 11.2806 42.2632 8.60222Z" fill="#ECB733"/>
<path d="M10.2707 58.9991C7.79127 55.3646 4.06411 53.1535 0.679149 52.9546C-0.57183 55.8836 -0.00698499 59.965 2.46919 63.5956C4.94537 67.2279 8.67574 69.4413 12.0607 69.6382C13.3082 66.7067 12.7468 62.6272 10.2707 58.9991Z" fill="#ECB733"/>
<path d="M109.094 104.65C104.03 106.176 100.31 109.299 99.108 112.575C102.272 114.538 107.339 115 112.403 113.465C117.471 111.933 121.189 108.815 122.389 105.538C119.222 103.577 114.163 103.111 109.094 104.65Z" fill="#ECB733"/>
<path d="M110.066 88.2516C109.24 92.7599 110.462 97.0075 112.949 99.4566C116.146 98.0186 118.805 94.45 119.631 89.9457C120.458 85.4377 119.227 81.1878 116.744 78.741C113.548 80.1825 110.893 83.7453 110.066 88.2516Z" fill="#ECB733"/>
<path d="M130 86.0727C125.629 88.7042 123.009 92.5541 122.837 95.9979C126.438 97.175 131.403 96.4755 135.77 93.8463C140.146 91.2145 142.766 87.3587 142.934 83.9169C139.337 82.7418 134.372 83.4413 130 86.0727Z" fill="#ECB733"/>
<path d="M126.816 62.1575C124.08 63.9664 122.191 67.6791 122.17 72.0005C122.144 76.3261 123.99 80.1103 126.7 82.0259C129.441 80.219 131.326 76.5043 131.351 72.1809C131.377 67.8573 129.531 64.0689 126.816 62.1575Z" fill="#ECB733"/>
<path d="M124.571 37.1323C122.97 39.8563 123.035 43.9626 125.065 47.882C127.092 51.8015 130.542 54.4886 133.886 55.1366C135.486 52.4149 135.417 48.3063 133.391 44.3911C131.364 40.4674 127.914 37.7826 124.571 37.1323Z" fill="#ECB733"/>
<path d="M138.782 45.2321C141.48 43.5952 143.442 40.1085 143.639 35.9756C143.846 31.8386 142.237 28.1591 139.716 26.2371C137.018 27.8739 135.06 31.3565 134.858 35.4916C134.651 39.6264 136.261 43.3081 138.782 45.2321Z" fill="#ECB733"/>
<path d="M127.445 31.6028C127.922 28.8278 126.507 25.2751 123.478 22.3874C120.444 19.4995 116.607 18.0473 113.522 18.3406C113.048 21.1199 114.46 24.6684 117.493 27.556C120.522 30.4442 124.36 31.8964 127.445 31.6028Z" fill="#ECB733"/>
<path d="M129.394 22.3873C131.011 20.246 131.369 16.7777 130.052 13.2828C128.74 9.78153 126.111 7.18691 123.357 6.31738C121.739 8.45866 121.386 11.925 122.699 15.4238C124.015 18.9232 126.64 21.5136 129.394 22.3873Z" fill="#ECB733"/>
<path d="M117.092 12.3309C117.522 9.74661 116.193 6.44446 113.357 3.76995C110.522 1.09126 106.942 -0.24418 104.077 0.0368175C103.643 2.62725 104.976 5.92548 107.812 8.60222C110.643 11.2806 114.223 12.6161 117.092 12.3309Z" fill="#ECB733"/>
<path d="M149.396 52.9543C146.01 53.1535 142.284 55.3643 139.806 58.9989C137.328 62.627 136.768 66.7068 138.016 69.6377C141.398 69.4408 145.132 67.2277 147.606 63.5951C150.08 59.965 150.644 55.8833 149.396 52.9543Z" fill="#ECB733"/>
<path d="M81.6238 34V82.4527H71.3797V43.7237H71.0958L60 50.6793V41.5944L71.9948 34H81.6238Z" fill="#ECB733"/>
</svg>
