<svg width="150" height="116" viewBox="0 0 150 116" fill="none" xmlns="http://www.w3.org/2000/svg">
<path d="M40.9429 106.132C35.8775 104.572 30.8135 105.044 27.6479 107.032C28.8482 110.356 32.5681 113.518 37.6353 115.072C42.6984 116.628 47.7638 116.16 50.9282 114.169C49.7276 110.847 46.0069 107.679 40.9429 106.132Z" fill="#D1C096"/>
<path d="M37.0906 100.865C39.5744 98.3812 40.7985 94.0734 39.9723 89.5013C39.1473 84.9312 36.4906 81.318 33.2914 79.8557C30.81 82.3372 29.5804 86.6473 30.4086 91.2191C31.2339 95.7873 33.8932 99.4067 37.0906 100.865Z" fill="#D1C096"/>
<path d="M20.0383 87.292C15.6657 84.6232 10.7037 83.9139 7.10486 85.1056C7.27478 88.5962 9.89275 92.5066 14.2653 95.1756C18.6367 97.8421 23.5976 98.5514 27.1979 97.3577C27.0268 93.8652 24.41 89.9607 20.0383 87.292Z" fill="#D1C096"/>
<path d="M23.2224 63.0381C20.5063 64.9766 18.6618 68.8187 18.6864 73.2035C18.7101 77.5884 20.5957 81.3557 23.3332 83.1879C26.0502 81.2452 27.8938 77.4073 27.8692 73.0205C27.8446 68.6376 25.9588 64.8726 23.2224 63.0381Z" fill="#D1C096"/>
<path d="M16.153 55.9174C19.4961 55.2602 22.9446 52.5351 24.9714 48.5601C27.0031 44.5852 27.0679 40.4207 25.4694 37.6582C22.1243 38.3177 18.6749 41.0405 16.6481 45.02C14.6184 48.9907 14.5505 53.1572 16.153 55.9174Z" fill="#D1C096"/>
<path d="M11.2581 45.8727C13.7783 43.9214 15.3852 40.1876 15.181 35.9942C14.9797 31.8006 13.0212 28.2687 10.3233 26.6086C7.80316 28.5579 6.19271 32.2895 6.39837 36.4851C6.5973 40.6765 8.55931 44.2127 11.2581 45.8727Z" fill="#D1C096"/>
<path d="M36.5149 18.6002C33.4335 18.3027 29.5909 19.7752 26.559 22.7043C23.5279 25.6331 22.1167 29.2358 22.591 32.0502C25.6748 32.3477 29.515 30.8752 32.5461 27.9461C35.5772 25.0176 36.9896 21.4188 36.5149 18.6002Z" fill="#D1C096"/>
<path d="M27.3403 15.6422C28.6525 12.0935 28.2974 8.57806 26.6799 6.40674C23.9295 7.28858 21.2984 9.91995 19.9841 13.4708C18.6707 17.0152 19.0267 20.5327 20.6468 22.7043C23.3946 21.8182 26.0257 19.1911 27.3403 15.6422Z" fill="#D1C096"/>
<path d="M42.2267 8.72405C45.0621 6.0094 46.3948 2.66446 45.9624 0.0373389C43.0969 -0.247639 39.5171 1.10671 36.6785 3.82335C33.8464 6.53573 32.5172 9.88492 32.9449 12.5055C35.8128 12.7948 39.3934 11.4404 42.2267 8.72405Z" fill="#D1C096"/>
<path d="M10.234 59.8347C7.75465 56.1487 4.02749 53.9063 0.642528 53.7046C-0.608451 56.675 -0.0436061 60.8143 2.43257 64.4963C4.90874 68.1801 8.63912 70.4248 12.0241 70.6245C13.2715 67.6515 12.7102 63.5142 10.234 59.8347Z" fill="#D1C096"/>
<path d="M109.058 106.132C103.993 107.679 100.274 110.847 99.0715 114.169C102.236 116.16 107.302 116.628 112.366 115.072C117.435 113.518 121.152 110.356 122.352 107.032C119.186 105.044 114.126 104.572 109.058 106.132Z" fill="#D1C096"/>
<path d="M110.03 89.5013C109.204 94.0734 110.426 98.3812 112.913 100.865C116.109 99.4067 118.769 95.7875 119.595 91.2194C120.421 86.6475 119.19 82.3375 116.707 79.856C113.511 81.318 110.856 84.9312 110.03 89.5013Z" fill="#D1C096"/>
<path d="M129.964 87.292C125.592 89.9607 122.972 93.8652 122.8 97.3577C126.401 98.5514 131.366 97.8421 135.734 95.1756C140.109 92.5066 142.73 88.5962 142.897 85.1056C139.3 83.9139 134.335 84.6232 129.964 87.292Z" fill="#D1C096"/>
<path d="M126.78 63.0381C124.043 64.8726 122.154 68.6379 122.133 73.0205C122.107 77.4073 123.953 81.2452 126.664 83.1879C129.404 81.3554 131.289 77.5881 131.315 73.2035C131.34 68.8187 129.495 64.9766 126.78 63.0381Z" fill="#D1C096"/>
<path d="M124.534 37.6582C122.933 40.4207 122.998 44.5852 125.029 48.5601C127.055 52.5351 130.506 55.2602 133.849 55.9174C135.449 53.1572 135.381 48.9904 133.354 45.0197C131.328 41.0405 127.877 38.3177 124.534 37.6582Z" fill="#D1C096"/>
<path d="M138.745 45.8727C141.443 44.2127 143.405 40.6765 143.603 36.4851C143.81 32.2895 142.2 28.5579 139.679 26.6086C136.981 28.2687 135.024 31.8006 134.821 35.9942C134.615 40.1876 136.224 43.9214 138.745 45.8727Z" fill="#D1C096"/>
<path d="M127.408 32.0502C127.886 29.2358 126.47 25.6328 123.441 22.7043C120.408 19.7755 116.57 18.3027 113.485 18.6002C113.012 21.4188 114.423 25.0175 117.457 27.9461C120.486 30.8752 124.323 32.3479 127.408 32.0502Z" fill="#D1C096"/>
<path d="M129.357 22.7043C130.975 20.5327 131.332 17.0152 130.015 13.4708C128.703 9.91995 126.074 7.28858 123.321 6.40674C121.703 8.57835 121.35 12.0938 122.662 15.6422C123.979 19.1911 126.604 21.8182 129.357 22.7043Z" fill="#D1C096"/>
<path d="M117.056 12.5055C117.486 9.88464 116.156 6.53573 113.321 3.82335C110.486 1.10671 106.906 -0.247639 104.04 0.0373389C103.606 2.66446 104.94 6.0094 107.775 8.72405C110.606 11.4404 114.186 12.7948 117.056 12.5055Z" fill="#D1C096"/>
<path d="M149.359 53.7041C145.973 53.9061 142.247 56.1482 139.769 59.8342C137.291 63.5137 136.732 67.6513 137.979 70.6237C141.361 70.424 145.095 68.1796 147.569 64.4956C150.043 60.8141 150.607 56.6746 149.359 53.7041Z" fill="#D1C096"/>
<path d="M90.4805 74.7803L72.2409 74.7843V74.639L85.9542 58.9964C89.2489 55.3665 91.2399 51.585 91.2388 46.7696C91.2355 38.6154 85.1807 32.3918 75.2171 32.3958C65.1759 32.398 59.3523 38.478 58.8188 45.4421C58.7414 45.8894 58.9738 46.2597 59.432 46.3305L67.863 47.6661C68.3986 47.7369 68.7062 47.5183 68.7062 47.0712C69.1644 43.2189 71.3101 41.1428 74.8351 41.1428C78.4375 41.1408 80.507 43.5849 80.5082 46.9194C80.5082 49.5134 79.4379 51.6601 77.4461 53.8858L59.1343 74.9367C58.8287 75.3089 58.7511 75.5316 58.7511 75.9769L58.7534 82.8682C58.7534 83.3132 59.0602 83.6067 59.5204 83.6067L90.4826 83.5985C90.944 83.5985 91.2496 83.305 91.2496 82.86L91.2472 75.5237C91.2472 75.0778 90.9417 74.7803 90.4805 74.7803Z" fill="#D1C096"/>
</svg>
