<svg version="1.1" xmlns="http://www.w3.org/2000/svg" viewBox="0 0 528 443" preserveAspectRatio="xMidYMid meet">
<path d="M0 0 C1.6 -0.01 1.6 -0.01 3.22 -0.02 C4.96 -0.02 4.96 -0.02 6.73 -0.02 C8.57 -0.03 8.57 -0.03 10.45 -0.04 C13.8 -0.05 17.16 -0.06 20.52 -0.06 C22.62 -0.06 24.72 -0.07 26.82 -0.07 C33.4 -0.08 39.98 -0.09 46.56 -0.1 C54.14 -0.1 61.72 -0.12 69.3 -0.15 C75.17 -0.17 81.04 -0.18 86.91 -0.18 C90.42 -0.18 93.92 -0.19 97.42 -0.21 C101.33 -0.23 105.24 -0.22 109.14 -0.22 C110.3 -0.23 111.45 -0.23 112.63 -0.24 C119.02 -0.21 123.85 0.36 129.63 3.14 C132.78 5.87 135.17 8.81 137.63 12.14 C137.66 16.27 137.68 20.39 137.69 24.52 C137.7 25.69 137.71 26.87 137.72 28.08 C137.72 29.2 137.73 30.32 137.73 31.48 C137.73 32.51 137.74 33.55 137.74 34.62 C137.63 37.14 137.63 37.14 136.63 39.14 C136.96 39.8 137.29 40.46 137.63 41.14 C137.73 42.83 137.76 44.53 137.76 46.23 C137.77 47.24 137.77 48.25 137.77 49.3 C137.76 50.36 137.76 51.42 137.76 52.52 C137.76 53.57 137.76 54.62 137.77 55.71 C137.77 57.23 137.77 57.23 137.76 58.79 C137.76 60.18 137.76 60.18 137.76 61.61 C137.64 63.93 137.29 65.91 136.63 68.14 C136.96 68.8 137.29 69.46 137.63 70.14 C137.73 71.83 137.76 73.53 137.76 75.23 C137.77 76.24 137.77 77.25 137.77 78.3 C137.76 79.36 137.76 80.42 137.76 81.52 C137.76 82.57 137.76 83.62 137.77 84.71 C137.77 86.23 137.77 86.23 137.76 87.79 C137.76 88.72 137.76 89.65 137.76 90.61 C137.64 92.93 137.29 94.91 136.63 97.14 C136.96 97.8 137.29 98.46 137.63 99.14 C137.7 101.86 137.72 104.55 137.69 107.27 C137.69 108.02 137.68 108.77 137.68 109.55 C137.67 111.41 137.65 113.28 137.63 115.14 C138.21 115.14 138.79 115.13 139.39 115.13 C145.48 115.08 151.56 115.05 157.64 115.03 C159.91 115.02 162.18 115.01 164.44 114.99 C167.71 114.97 170.98 114.95 174.25 114.95 C175.76 114.93 175.76 114.93 177.29 114.91 C183.38 114.91 188.73 115.6 194.63 117.14 C195.88 118.22 197.13 119.31 198.38 120.39 C199.08 120.99 199.77 121.6 200.49 122.22 C205.53 126.74 207.26 129.55 209.01 136.06 C210.09 141.45 209.69 146.24 207.8 151.4 C205.98 155.31 203.94 158.3 200.63 161.14 C199.97 161.14 199.31 161.14 198.63 161.14 C198.86 162.05 199.09 162.95 199.32 163.89 C201.01 171.02 202.22 176.95 200.63 184.14 C200.48 185.03 200.32 185.91 200.17 186.83 C198.74 193.86 196.08 199.61 192.41 205.71 C189.78 210.23 189.01 213.92 188.63 219.14 C191.26 226.56 195.8 232.04 201.88 237.02 C208.5 241.3 217.29 241.4 224.96 241.52 C241.36 241.49 255.51 238.93 269.63 230.14 C273.24 227.38 276.46 224.4 279.63 221.14 C280.18 220.62 280.73 220.11 281.3 219.57 C289.98 210.68 294.21 197.69 296.94 185.86 C301.15 163.23 300.21 138.79 291.82 117.27 C288.86 110.31 285.37 103.7 281.63 97.14 C278.78 95.89 278.78 95.89 276.39 96.69 C272.99 97.52 269.59 98.33 266.19 99.14 C265.03 99.43 263.86 99.71 262.66 100.01 C256.14 101.55 250.33 102.48 243.63 102.14 C241.98 100.82 240.33 99.5 238.63 98.14 C238.3 95.83 237.97 93.52 237.63 91.14 C239.15 88.51 240.47 86.3 242.63 84.14 C246.86 83.13 251.09 82.13 255.32 81.14 C256.52 80.85 257.72 80.57 258.95 80.27 C260.68 79.87 260.68 79.87 262.46 79.45 C263.52 79.2 264.58 78.95 265.68 78.69 C268.63 78.14 268.63 78.14 273.63 78.14 C273.63 70.88 273.63 63.62 273.63 56.14 C275.12 54.16 275.12 54.16 276.63 52.14 C277.65 50.48 278.65 48.82 279.63 47.14 C280.29 47.14 280.95 47.14 281.63 47.14 C282.29 46.48 282.95 45.82 283.63 45.14 C284.34 45.03 285.06 44.93 285.79 44.82 C293.61 43.59 301.19 41.86 308.85 39.88 C311.35 39.25 313.86 38.62 316.36 37.99 C320.25 37 324.14 36.01 328.03 35.01 C331.82 34.04 335.62 33.08 339.41 32.13 C340.56 31.83 341.71 31.53 342.89 31.22 C350.27 29.39 357.04 28.77 364.63 29.14 C369.31 31.97 372.36 34.75 375.63 39.14 C376.55 41.9 376.77 43.58 376.79 46.42 C376.8 47.29 376.81 48.15 376.82 49.03 C376.83 50.43 376.83 50.43 376.83 51.85 C376.84 52.81 376.85 53.76 376.85 54.75 C376.86 56.78 376.87 58.81 376.87 60.84 C376.88 63.93 376.91 67.02 376.94 70.12 C376.95 72.09 376.96 74.06 376.96 76.03 C376.97 76.96 376.98 77.88 377 78.83 C376.98 84.04 376.52 87.62 373.63 92.14 C371.91 94 371.91 94 370.13 95.45 C369.54 95.94 368.96 96.44 368.35 96.94 C365.55 98.89 362.94 99.28 359.62 99.46 C358.86 99.5 358.1 99.54 357.32 99.58 C356.54 99.62 355.75 99.66 354.94 99.7 C354.15 99.75 353.35 99.79 352.53 99.83 C350.56 99.94 348.6 100.04 346.63 100.14 C346.92 100.79 347.21 101.44 347.51 102.1 C353.71 115.92 359.57 129.77 364.82 143.98 C365.88 146.79 367.04 149.55 368.19 152.33 C374.69 169.23 378.4 187.36 381.63 205.14 C382.65 205.43 383.66 205.72 384.71 206.02 C392.64 208.36 399.95 210.99 407.28 214.91 C409.68 216.24 409.68 216.24 412.63 217.14 C414.34 218.77 416 220.44 417.63 222.14 C418.48 222.94 419.33 223.75 420.21 224.58 C429.95 233.92 437.99 244.28 442.63 257.14 C443.44 260.83 443.44 260.83 443.63 263.14 C440.61 268.17 440.24 268.51 435.63 271.14 C433.71 271.92 431.77 272.65 429.82 273.33 C428.84 273.67 427.87 274.02 426.86 274.37 C426.13 274.62 425.39 274.88 424.63 275.14 C424.9 275.73 425.16 276.33 425.44 276.94 C429.95 287.53 431.72 297.95 430.2 309.39 C427.89 322.2 422.39 332.94 413.92 342.78 C410.78 346.02 407.41 348.7 403.63 351.14 C402.97 351.14 402.31 351.14 401.63 351.14 C401.63 351.8 401.63 352.46 401.63 353.14 C400.31 353.47 398.99 353.8 397.63 354.14 C397.3 354.8 396.97 355.46 396.63 356.14 C394.52 356.62 392.42 357.1 390.3 357.56 C388.58 357.93 386.86 358.33 385.15 358.75 C373.67 361.31 361.8 360.24 350.73 356.43 C339.4 351.71 331.23 345.17 323.94 335.39 C318.75 327.67 315.17 319.48 314.63 310.14 C313.97 310.14 313.31 310.14 312.63 310.14 C312.63 310.8 312.63 311.46 312.63 312.14 C299 316.73 299 316.73 292.63 316.14 C288.85 312.36 287.63 308.55 286.24 303.54 C285.33 298.46 285.06 293.28 284.63 288.14 C246.68 288.14 208.73 288.14 169.63 288.14 C168.15 292.6 168.15 292.6 166.63 297.14 C165.63 299.19 164.57 301.22 163.44 303.2 C162.91 304.14 162.38 305.08 161.84 306.05 C161.44 306.74 161.04 307.43 160.63 308.14 C156.43 310.17 153.01 310.37 148.36 310.34 C147.34 310.33 147.34 310.33 146.3 310.33 C144.14 310.32 141.98 310.29 139.82 310.27 C138.35 310.26 136.88 310.25 135.41 310.24 C131.81 310.22 128.22 310.18 124.63 310.14 C124.44 310.94 124.25 311.74 124.06 312.56 C121.3 323.98 117.24 332.67 109.63 341.64 C109.13 342.23 108.63 342.82 108.12 343.42 C101.25 351.21 92.36 354.99 82.63 358.14 C71.37 361.05 59.51 360.89 48.38 357.45 C40.25 354.42 32.37 350.81 26.63 344.14 C25.73 343.19 25.73 343.19 24.81 342.21 C17.21 334.07 10.72 325.28 8.63 314.14 C8.63 312.82 8.63 311.5 8.63 310.14 C-1.6 310.14 -11.83 310.14 -22.37 310.14 C-24.35 308.82 -26.33 307.5 -28.37 306.14 C-30.9 298.54 -28.86 292.91 -26.95 285.34 C-23.45 272.08 -16.35 259.1 -8.11 248.14 C-5.79 244.14 -5.47 240.56 -4.99 236.02 C-3.16 221.89 0.74 208.65 6.69 195.7 C7.01 195.01 7.33 194.32 7.65 193.61 C9.73 189.32 12.11 186.42 15.63 183.14 C16.74 181.77 17.83 180.37 18.88 178.95 C28.74 166.07 28.74 166.07 34.63 162.14 C34.15 161.56 33.67 160.98 33.17 160.38 C26.56 152.21 26.56 152.21 25.63 147.14 C25.37 142.6 25.18 138.48 26.63 134.14 C25.09 134.16 25.09 134.16 23.51 134.19 C19.68 134.24 15.84 134.28 12.01 134.31 C10.35 134.32 8.69 134.34 7.04 134.37 C4.65 134.4 2.26 134.42 -0.13 134.43 C-1.23 134.46 -1.23 134.46 -2.35 134.48 C-7.12 134.48 -10.31 133.63 -14.37 131.14 C-16.23 129.39 -16.23 129.39 -17.68 127.58 C-18.42 126.68 -18.42 126.68 -19.17 125.76 C-20.71 123.68 -21.35 122.47 -21.51 119.87 C-21.54 116.83 -21.55 113.8 -21.56 110.77 C-21.57 109.71 -21.58 108.66 -21.59 107.57 C-21.6 106.55 -21.6 105.54 -21.6 104.49 C-21.6 103.56 -21.61 102.63 -21.61 101.67 C-21.36 99.04 -20.71 97.4 -19.37 95.14 C-20.03 94.81 -20.69 94.48 -21.37 94.14 C-21.4 90.2 -21.42 86.27 -21.43 82.33 C-21.44 81.21 -21.45 80.09 -21.46 78.94 C-21.46 77.86 -21.46 76.79 -21.47 75.68 C-21.47 74.69 -21.48 73.7 -21.48 72.68 C-21.37 70.14 -21.37 70.14 -20.37 67.14 C-20.7 66.15 -21.03 65.16 -21.37 64.14 C-21.46 62.4 -21.5 60.66 -21.5 58.92 C-21.5 57.91 -21.5 56.89 -21.51 55.85 C-21.5 54.79 -21.5 53.73 -21.49 52.64 C-21.5 51.58 -21.5 50.52 -21.51 49.43 C-21.5 48.42 -21.5 47.4 -21.5 46.36 C-21.5 45.43 -21.5 44.5 -21.5 43.54 C-21.37 41.14 -21.37 41.14 -20.37 38.14 C-20.86 36.66 -20.86 36.66 -21.37 35.14 C-21.45 33.37 -21.48 31.59 -21.47 29.82 C-21.46 28.79 -21.46 27.76 -21.46 26.7 C-21.45 25.63 -21.44 24.56 -21.43 23.45 C-21.42 21.83 -21.42 21.83 -21.42 20.17 C-21.41 17.49 -21.39 14.82 -21.37 12.14 C-20.43 10.84 -19.48 9.55 -18.53 8.26 C-18 7.54 -17.47 6.82 -16.93 6.08 C-15 3.68 -13.19 2.37 -10.37 1.14 C-6.86 0.3 -3.6 0.01 0 0 Z M113.88 18.18 C112.34 18.19 112.34 18.19 110.76 18.2 C109.06 18.22 109.06 18.22 107.32 18.23 C105.53 18.25 105.53 18.25 103.71 18.26 C100.44 18.29 97.17 18.32 93.89 18.34 C90.48 18.37 87.06 18.4 83.64 18.43 C77.17 18.48 70.7 18.53 64.22 18.59 C56.85 18.65 49.49 18.71 42.12 18.77 C26.95 18.89 11.79 19.02 -3.37 19.14 C-3.37 22.77 -3.37 26.4 -3.37 30.14 C37.22 30.14 77.81 30.14 119.63 30.14 C119.63 26.18 119.63 22.22 119.63 18.14 C117.71 18.14 115.8 18.16 113.88 18.18 Z M-3.37 47.14 C-3.37 50.77 -3.37 54.4 -3.37 58.14 C37.22 58.14 77.81 58.14 119.63 58.14 C119.63 54.51 119.63 50.88 119.63 47.14 C79.04 47.14 38.45 47.14 -3.37 47.14 Z M351.81 48.51 C348.75 49.4 345.69 50.27 342.63 51.14 C342.63 60.71 342.63 70.28 342.63 80.14 C347.58 80.47 352.53 80.8 357.63 81.14 C357.63 69.92 357.63 58.7 357.63 47.14 C355.62 47.14 353.73 47.95 351.81 48.51 Z M316.53 56.89 C315.47 57.16 315.47 57.16 314.39 57.43 C312.11 58 309.84 58.57 307.57 59.14 C306.03 59.53 304.49 59.91 302.96 60.3 C299.18 61.24 295.41 62.19 291.63 63.14 C291.63 68.42 291.63 73.7 291.63 79.14 C307.97 79.64 307.97 79.64 324.63 80.14 C324.63 71.89 324.63 63.64 324.63 55.14 C321.96 55.14 319.13 56.24 316.53 56.89 Z M-3.37 76.14 C-3.37 79.77 -3.37 83.4 -3.37 87.14 C37.22 87.14 77.81 87.14 119.63 87.14 C119.63 83.51 119.63 79.88 119.63 76.14 C79.04 76.14 38.45 76.14 -3.37 76.14 Z M-3.37 105.14 C-3.37 108.77 -3.37 112.4 -3.37 116.14 C37.22 116.14 77.81 116.14 119.63 116.14 C119.63 112.51 119.63 108.88 119.63 105.14 C79.04 105.14 38.45 105.14 -3.37 105.14 Z M48.63 134.14 C47.31 135.46 45.99 136.78 44.63 138.14 C44.63 140.45 44.63 142.76 44.63 145.14 C45.62 146.13 46.61 147.12 47.63 148.14 C93.17 148.14 138.71 148.14 185.63 148.14 C185.96 147.48 186.29 146.82 186.63 146.14 C187.62 146.14 188.61 146.14 189.63 146.14 C189.96 143.83 190.29 141.52 190.63 139.14 C188.98 137.49 187.33 135.84 185.63 134.14 C140.42 134.14 95.21 134.14 48.63 134.14 Z M303.63 98.14 C305.21 101.54 305.21 101.54 306.82 105.02 C309.49 111 311.68 117.01 313.44 123.33 C313.64 124.01 313.83 124.7 314.03 125.41 C316.96 136.41 318 147.4 317.94 158.77 C317.94 159.98 317.93 161.2 317.93 162.46 C317.67 182.87 314 204.72 302.63 222.14 C292.32 236.46 279.07 247.99 262.55 254.45 C245.18 260.73 226.98 261.8 208.82 258.83 C208.08 258.71 207.35 258.59 206.59 258.47 C197.01 256.74 190.73 251.47 183.63 245.14 C177.6 239.39 172.86 233.28 170.63 225.14 C169.68 217.16 169.93 209.82 173.35 202.48 C175.22 199.06 177.27 195.75 179.3 192.43 C182.94 186.16 182.84 180.09 182.8 173.03 C182.75 170.07 182.75 170.07 181.63 167.14 C140.71 167.14 99.79 167.14 57.63 167.14 C50.51 172.56 50.51 172.56 44.19 178.52 C40.82 182.05 40.82 182.05 38.63 183.14 C38.04 184.22 38.04 184.22 37.44 185.33 C35.63 188.14 35.63 188.14 33.38 190.27 C27.15 196.78 22.94 204.81 19.63 213.14 C19.96 214.13 20.29 215.12 20.63 216.14 C21.62 216.14 22.61 216.14 23.63 216.14 C24.51 215.57 25.38 215 26.28 214.42 C44.91 202.6 66.27 195.19 88.52 195.1 C106.82 195.44 123.86 199.65 139.63 209.14 C151.82 217.52 159.79 228.63 165.63 242.14 C166 242.97 166.37 243.79 166.75 244.64 C170.18 253.05 170.43 259.5 171.63 269.14 C209.58 269.14 247.53 269.14 286.63 269.14 C288.61 263.2 290.59 257.26 292.63 251.14 C299.69 237.29 310.63 224.85 323.63 216.14 C335.86 210.02 347.95 206.3 361.63 205.14 C361.11 198.03 359.94 191.3 358.19 184.39 C357.94 183.39 357.69 182.38 357.43 181.35 C353.9 167.72 349.24 154.43 344.63 141.14 C343.97 141.14 343.31 141.14 342.63 141.14 C342.53 140.29 342.42 139.45 342.32 138.58 C341.57 134.83 340.18 131.61 338.63 128.14 C337.88 126.44 337.88 126.44 337.11 124.7 C335.71 121.56 334.31 118.42 332.91 115.28 C332.3 113.93 331.7 112.57 331.1 111.22 C330.22 109.26 329.34 107.3 328.47 105.34 C327.95 104.17 327.43 103.01 326.89 101.8 C325.88 99.27 325.88 99.27 324.63 98.14 C317.7 98.14 310.77 98.14 303.63 98.14 Z M70.63 215.14 C69.44 215.34 69.44 215.34 68.23 215.54 C52.99 218.44 37.36 227.15 25.63 237.14 C24.64 237.88 23.65 238.63 22.63 239.39 C17.97 243.34 14.35 248.33 10.63 253.14 C10.21 253.68 9.79 254.22 9.36 254.77 C0.37 266.45 -5.1 277.91 -9.37 292.14 C43.1 292.14 95.57 292.14 149.63 292.14 C153.53 277.85 155.14 265.36 150.66 251.05 C146.58 240.34 140.32 231.66 131.13 224.78 C127.45 222.36 123.75 220.67 119.63 219.14 C118.8 218.79 117.97 218.44 117.12 218.09 C101.94 212.01 86.45 212.25 70.63 215.14 Z M18.63 216.14 C19.63 219.14 19.63 219.14 19.63 219.14 Z M325.56 236.43 C315.04 245.47 309.43 256.36 304.88 269.27 C302.64 277.22 303.47 285.95 303.63 294.14 C309.1 293.12 314.4 292.07 319.63 290.14 C319.63 289.48 319.63 288.82 319.63 288.14 C320.46 288 320.46 288 321.31 287.86 C329.14 286.44 336.6 284.07 344.17 281.63 C345.57 281.18 346.98 280.73 348.38 280.29 C352.08 279.11 355.77 277.92 359.46 276.73 C363.12 275.56 366.79 274.38 370.46 273.21 C376.84 271.17 383.22 269.12 389.6 267.08 C396.48 264.87 403.37 262.66 410.25 260.46 C411.31 260.12 412.38 259.78 413.47 259.43 C415.86 258.67 418.24 257.9 420.63 257.14 C421.13 256.15 421.13 256.15 421.63 255.14 C420.57 253.6 419.51 252.06 418.44 250.52 C417.85 249.66 417.26 248.8 416.65 247.91 C409.58 238.21 401.01 231.62 389.88 227.2 C387.81 226.49 385.72 225.8 383.63 225.14 C382.9 224.9 382.17 224.65 381.41 224.4 C362.58 219.11 340.87 225.03 325.56 236.43 Z M400.51 282.64 C399.78 282.92 399.06 283.2 398.31 283.48 C397.76 283.7 397.2 283.92 396.63 284.14 C396.91 284.67 397.19 285.21 397.47 285.76 C400.66 292.31 402.19 298.32 401.34 305.63 C400.52 309.87 399.56 312.89 396.63 316.14 C395.86 317.31 395.09 318.47 394.32 319.64 C391.27 323.85 388.09 326.19 383.19 328.08 C376.48 330.21 370.52 330.75 363.63 329.14 C358.36 327.3 354.01 324.94 350.26 320.77 C349.35 319.58 348.48 318.37 347.63 317.14 C347.23 316.58 346.83 316.03 346.42 315.45 C343.35 310.75 342.97 306.6 342.63 301.14 C337.19 302.63 337.19 302.63 331.63 304.14 C332.22 308.58 333.36 312.28 335.13 316.39 C335.57 317.43 336.02 318.46 336.47 319.53 C337.16 321.08 337.87 322.62 338.63 324.14 C339.29 324.14 339.95 324.14 340.63 324.14 C340.96 325.46 341.29 326.78 341.63 328.14 C348.45 334.6 354.89 339.06 364.23 340.82 C373.72 342.08 381.76 340.75 390.63 337.14 C397.11 333.95 400.9 330.04 404.64 323.9 C405.8 322.19 405.8 322.19 405.63 320.14 C406.29 319.81 406.95 319.48 407.63 319.14 C411.78 311.37 413.38 305.01 412.63 296.14 C411.39 290.8 409.23 285.96 406.63 281.14 C404.27 281.14 402.71 281.79 400.51 282.64 Z M367.32 292.64 C366.44 292.92 365.55 293.2 364.64 293.48 C363.98 293.7 363.32 293.92 362.63 294.14 C361.97 295.13 361.31 296.12 360.63 297.14 C360.63 299.78 360.63 302.42 360.63 305.14 C363.22 308.65 364.62 310.14 368.63 312.14 C371.6 311.81 374.57 311.48 377.63 311.14 C381.06 307.97 381.06 307.97 383.63 304.14 C383.3 301.17 382.97 298.2 382.63 295.14 C380.98 293.82 379.33 292.5 377.63 291.14 C373.87 290.98 370.9 291.49 367.32 292.64 Z M27.63 310.14 C28.08 316 30.35 320.38 33.63 325.14 C39.58 332.36 46.02 336.99 54.91 339.88 C63.68 342.14 72.07 341.57 80.74 339.17 C88.35 336.45 93.75 331.55 98.9 325.45 C102.6 320.51 104.42 316.19 105.63 310.14 C102 310.14 98.37 310.14 94.63 310.14 C93.79 311.67 92.94 313.19 92.07 314.77 C88.39 320.87 84.55 324.55 78.32 327.95 C71.41 330.18 64.86 330.79 57.8 328.93 C51.81 326.74 46.71 323.02 42.63 318.14 C41.14 315.52 39.89 312.89 38.63 310.14 C35 310.14 31.37 310.14 27.63 310.14 Z M60.63 310.14 C62.12 311.13 62.12 311.13 63.63 312.14 C68.09 311.65 68.09 311.65 72.63 311.14 C72.63 310.81 72.63 310.48 72.63 310.14 C68.67 310.14 64.71 310.14 60.63 310.14 Z " fill="#311B04" transform="translate(57.36885070800781,56.85955810546875)"/>
<path d="M0 0 C0 3 0 3 0 3 Z " fill="#311B04" transform="translate(147,377)"/>
<path d="M0 0 C0 3 0 3 0 3 Z " fill="#311B04" transform="translate(453,376)"/>
<path d="M0 0 C0.66 0.66 1.32 1.32 2 2 C1.34 2 0.68 2 0 2 C0 1.34 0 0.68 0 0 Z " fill="#311B04" transform="translate(245,307)"/>
<path d="" fill="#311B04" transform="translate(0,0)"/>
<path d="" fill="#311B04" transform="translate(0,0)"/>
<path d="" fill="#311B04" transform="translate(0,0)"/>
<path d="" fill="#311B04" transform="translate(0,0)"/>
<path d="" fill="#311B04" transform="translate(0,0)"/>
<path d="" fill="#311B04" transform="translate(0,0)"/>
<path d="" fill="#311B04" transform="translate(0,0)"/>
<path d="" fill="#311B04" transform="translate(0,0)"/>
<path d="" fill="#311B04" transform="translate(0,0)"/>
<path d="" fill="#311B04" transform="translate(0,0)"/>
<path d="" fill="#311B04" transform="translate(0,0)"/>
<path d="" fill="#311B04" transform="translate(0,0)"/>
<path d="" fill="#311B04" transform="translate(0,0)"/>
<path d="" fill="#311B04" transform="translate(0,0)"/>
<path d="" fill="#311B04" transform="translate(0,0)"/>
<path d="" fill="#311B04" transform="translate(0,0)"/>
<path d="" fill="#311B04" transform="translate(0,0)"/>
<path d="" fill="#311B04" transform="translate(0,0)"/>
<path d="" fill="#311B04" transform="translate(0,0)"/>
<path d="" fill="#311B04" transform="translate(0,0)"/>
<path d="" fill="#311B04" transform="translate(0,0)"/>
<path d="" fill="#311B04" transform="translate(0,0)"/>
<path d="" fill="#311B04" transform="translate(0,0)"/>
<path d="" fill="#311B04" transform="translate(0,0)"/>
<path d="" fill="#311B04" transform="translate(0,0)"/>
<path d="" fill="#311B04" transform="translate(0,0)"/>
<path d="" fill="#311B04" transform="translate(0,0)"/>
<path d="" fill="#311B04" transform="translate(0,0)"/>
<path d="" fill="#311B04" transform="translate(0,0)"/>
<path d="" fill="#311B04" transform="translate(0,0)"/>
<path d="" fill="#311B04" transform="translate(0,0)"/>
<path d="" fill="#311B04" transform="translate(0,0)"/>
<path d="" fill="#311B04" transform="translate(0,0)"/>
<path d="" fill="#311B04" transform="translate(0,0)"/>
<path d="" fill="#311B04" transform="translate(0,0)"/>
<path d="" fill="#311B04" transform="translate(0,0)"/>
<path d="" fill="#311B04" transform="translate(0,0)"/>
<path d="" fill="#311B04" transform="translate(0,0)"/>
<path d="" fill="#311B04" transform="translate(0,0)"/>
<path d="" fill="#311B04" transform="translate(0,0)"/>
<path d="" fill="#311B04" transform="translate(0,0)"/>
<path d="" fill="#311B04" transform="translate(0,0)"/>
<path d="" fill="#311B04" transform="translate(0,0)"/>
<path d="" fill="#311B04" transform="translate(0,0)"/>
<path d="" fill="#311B04" transform="translate(0,0)"/>
<path d="" fill="#311B04" transform="translate(0,0)"/>
<path d="" fill="#311B04" transform="translate(0,0)"/>
<path d="" fill="#311B04" transform="translate(0,0)"/>
<path d="" fill="#311B04" transform="translate(0,0)"/>
<path d="" fill="#311B04" transform="translate(0,0)"/>
<path d="" fill="#311B04" transform="translate(0,0)"/>
<path d="" fill="#311B04" transform="translate(0,0)"/>
<path d="" fill="#311B04" transform="translate(0,0)"/>
<path d="" fill="#311B04" transform="translate(0,0)"/>
<path d="" fill="#311B04" transform="translate(0,0)"/>
<path d="" fill="#311B04" transform="translate(0,0)"/>
<path d="" fill="#311B04" transform="translate(0,0)"/>
<path d="" fill="#311B04" transform="translate(0,0)"/>
<path d="" fill="#311B04" transform="translate(0,0)"/>
<path d="" fill="#311B04" transform="translate(0,0)"/>
<path d="" fill="#311B04" transform="translate(0,0)"/>
<path d="" fill="#311B04" transform="translate(0,0)"/>
<path d="" fill="#311B04" transform="translate(0,0)"/>
<path d="" fill="#311B04" transform="translate(0,0)"/>
<path d="" fill="#311B04" transform="translate(0,0)"/>
<path d="" fill="#311B04" transform="translate(0,0)"/>
<path d="" fill="#311B04" transform="translate(0,0)"/>
<path d="" fill="#311B04" transform="translate(0,0)"/>
<path d="" fill="#311B04" transform="translate(0,0)"/>
<path d="" fill="#311B04" transform="translate(0,0)"/>
<path d="" fill="#311B04" transform="translate(0,0)"/>
<path d="" fill="#311B04" transform="translate(0,0)"/>
<path d="" fill="#311B04" transform="translate(0,0)"/>
<path d="" fill="#311B04" transform="translate(0,0)"/>
<path d="" fill="#311B04" transform="translate(0,0)"/>
<path d="" fill="#311B04" transform="translate(0,0)"/>
<path d="" fill="#311B04" transform="translate(0,0)"/>
<path d="" fill="#311B04" transform="translate(0,0)"/>
<path d="" fill="#311B04" transform="translate(0,0)"/>
<path d="" fill="#311B04" transform="translate(0,0)"/>
<path d="" fill="#311B04" transform="translate(0,0)"/>
<path d="" fill="#311B04" transform="translate(0,0)"/>
<path d="" fill="#311B04" transform="translate(0,0)"/>
<path d="" fill="#311B04" transform="translate(0,0)"/>
<path d="" fill="#311B04" transform="translate(0,0)"/>
<path d="" fill="#311B04" transform="translate(0,0)"/>
<path d="" fill="#311B04" transform="translate(0,0)"/>
<path d="" fill="#311B04" transform="translate(0,0)"/>
<path d="" fill="#311B04" transform="translate(0,0)"/>
<path d="" fill="#311B04" transform="translate(0,0)"/>
<path d="" fill="#311B04" transform="translate(0,0)"/>
<path d="" fill="#311B04" transform="translate(0,0)"/>
<path d="" fill="#311B04" transform="translate(0,0)"/>
<path d="" fill="#311B04" transform="translate(0,0)"/>
<path d="" fill="#311B04" transform="translate(0,0)"/>
<path d="" fill="#311B04" transform="translate(0,0)"/>
<path d="" fill="#311B04" transform="translate(0,0)"/>
<path d="" fill="#311B04" transform="translate(0,0)"/>
<path d="" fill="#311B04" transform="translate(0,0)"/>
<path d="" fill="#311B04" transform="translate(0,0)"/>
<path d="" fill="#311B04" transform="translate(0,0)"/>
<path d="" fill="#311B04" transform="translate(0,0)"/>
<path d="" fill="#311B04" transform="translate(0,0)"/>
<path d="" fill="#311B04" transform="translate(0,0)"/>
<path d="" fill="#311B04" transform="translate(0,0)"/>
<path d="" fill="#311B04" transform="translate(0,0)"/>
<path d="" fill="#311B04" transform="translate(0,0)"/>
<path d="" fill="#311B04" transform="translate(0,0)"/>
<path d="" fill="#311B04" transform="translate(0,0)"/>
<path d="" fill="#311B04" transform="translate(0,0)"/>
<path d="" fill="#311B04" transform="translate(0,0)"/>
<path d="" fill="#311B04" transform="translate(0,0)"/>
<path d="" fill="#311B04" transform="translate(0,0)"/>
<path d="" fill="#311B04" transform="translate(0,0)"/>
<path d="" fill="#311B04" transform="translate(0,0)"/>
<path d="" fill="#311B04" transform="translate(0,0)"/>
<path d="" fill="#311B04" transform="translate(0,0)"/>
<path d="" fill="#311B04" transform="translate(0,0)"/>
<path d="" fill="#311B04" transform="translate(0,0)"/>
<path d="" fill="#311B04" transform="translate(0,0)"/>
<path d="" fill="#311B04" transform="translate(0,0)"/>
<path d="" fill="#311B04" transform="translate(0,0)"/>
<path d="" fill="#311B04" transform="translate(0,0)"/>
<path d="" fill="#311B04" transform="translate(0,0)"/>
<path d="" fill="#311B04" transform="translate(0,0)"/>
<path d="" fill="#311B04" transform="translate(0,0)"/>
<path d="" fill="#311B04" transform="translate(0,0)"/>
<path d="" fill="#311B04" transform="translate(0,0)"/>
<path d="" fill="#311B04" transform="translate(0,0)"/>
<path d="" fill="#311B04" transform="translate(0,0)"/>
<path d="" fill="#311B04" transform="translate(0,0)"/>
<path d="" fill="#311B04" transform="translate(0,0)"/>
<path d="" fill="#311B04" transform="translate(0,0)"/>
<path d="" fill="#311B04" transform="translate(0,0)"/>
<path d="" fill="#311B04" transform="translate(0,0)"/>
<path d="" fill="#311B04" transform="translate(0,0)"/>
<path d="" fill="#311B04" transform="translate(0,0)"/>
<path d="" fill="#311B04" transform="translate(0,0)"/>
<path d="" fill="#311B04" transform="translate(0,0)"/>
<path d="" fill="#311B04" transform="translate(0,0)"/>
<path d="" fill="#311B04" transform="translate(0,0)"/>
<path d="" fill="#311B04" transform="translate(0,0)"/>
<path d="" fill="#311B04" transform="translate(0,0)"/>
<path d="" fill="#311B04" transform="translate(0,0)"/>
<path d="" fill="#311B04" transform="translate(0,0)"/>
<path d="" fill="#311B04" transform="translate(0,0)"/>
<path d="" fill="#311B04" transform="translate(0,0)"/>
<path d="" fill="#311B04" transform="translate(0,0)"/>
<path d="" fill="#311B04" transform="translate(0,0)"/>
<path d="" fill="#311B04" transform="translate(0,0)"/>
<path d="" fill="#311B04" transform="translate(0,0)"/>
<path d="" fill="#311B04" transform="translate(0,0)"/>
<path d="" fill="#311B04" transform="translate(0,0)"/>
<path d="" fill="#311B04" transform="translate(0,0)"/>
<path d="" fill="#311B04" transform="translate(0,0)"/>
<path d="" fill="#311B04" transform="translate(0,0)"/>
<path d="" fill="#311B04" transform="translate(0,0)"/>
<path d="" fill="#311B04" transform="translate(0,0)"/>
<path d="" fill="#311B04" transform="translate(0,0)"/>
<path d="" fill="#311B04" transform="translate(0,0)"/>
<path d="" fill="#311B04" transform="translate(0,0)"/>
<path d="" fill="#311B04" transform="translate(0,0)"/>
<path d="" fill="#311B04" transform="translate(0,0)"/>
<path d="" fill="#311B04" transform="translate(0,0)"/>
<path d="" fill="#311B04" transform="translate(0,0)"/>
<path d="" fill="#311B04" transform="translate(0,0)"/>
<path d="" fill="#311B04" transform="translate(0,0)"/>
<path d="" fill="#311B04" transform="translate(0,0)"/>
<path d="" fill="#311B04" transform="translate(0,0)"/>
<path d="" fill="#311B04" transform="translate(0,0)"/>
<path d="" fill="#311B04" transform="translate(0,0)"/>
<path d="" fill="#311B04" transform="translate(0,0)"/>
<path d="" fill="#311B04" transform="translate(0,0)"/>
<path d="" fill="#311B04" transform="translate(0,0)"/>
<path d="" fill="#311B04" transform="translate(0,0)"/>
<path d="" fill="#311B04" transform="translate(0,0)"/>
<path d="" fill="#311B04" transform="translate(0,0)"/>
<path d="" fill="#311B04" transform="translate(0,0)"/>
<path d="" fill="#311B04" transform="translate(0,0)"/>
<path d="" fill="#311B04" transform="translate(0,0)"/>
<path d="" fill="#311B04" transform="translate(0,0)"/>
<path d="" fill="#311B04" transform="translate(0,0)"/>
<path d="" fill="#311B04" transform="translate(0,0)"/>
<path d="" fill="#311B04" transform="translate(0,0)"/>
<path d="" fill="#311B04" transform="translate(0,0)"/>
<path d="" fill="#311B04" transform="translate(0,0)"/>
<path d="" fill="#311B04" transform="translate(0,0)"/>
<path d="" fill="#311B04" transform="translate(0,0)"/>
<path d="" fill="#311B04" transform="translate(0,0)"/>
<path d="" fill="#311B04" transform="translate(0,0)"/>
<path d="" fill="#311B04" transform="translate(0,0)"/>
<path d="" fill="#311B04" transform="translate(0,0)"/>
<path d="" fill="#311B04" transform="translate(0,0)"/>
<path d="" fill="#311B04" transform="translate(0,0)"/>
<path d="" fill="#311B04" transform="translate(0,0)"/>
<path d="" fill="#311B04" transform="translate(0,0)"/>
<path d="" fill="#311B04" transform="translate(0,0)"/>
<path d="" fill="#311B04" transform="translate(0,0)"/>
<path d="" fill="#311B04" transform="translate(0,0)"/>
<path d="" fill="#311B04" transform="translate(0,0)"/>
<path d="" fill="#311B04" transform="translate(0,0)"/>
<path d="" fill="#311B04" transform="translate(0,0)"/>
<path d="" fill="#311B04" transform="translate(0,0)"/>
<path d="" fill="#311B04" transform="translate(0,0)"/>
<path d="" fill="#311B04" transform="translate(0,0)"/>
<path d="" fill="#311B04" transform="translate(0,0)"/>
<path d="" fill="#311B04" transform="translate(0,0)"/>
<path d="" fill="#311B04" transform="translate(0,0)"/>
<path d="" fill="#311B04" transform="translate(0,0)"/>
<path d="" fill="#311B04" transform="translate(0,0)"/>
<path d="" fill="#311B04" transform="translate(0,0)"/>
<path d="" fill="#311B04" transform="translate(0,0)"/>
<path d="" fill="#311B04" transform="translate(0,0)"/>
<path d="" fill="#311B04" transform="translate(0,0)"/>
<path d="" fill="#311B04" transform="translate(0,0)"/>
<path d="" fill="#311B04" transform="translate(0,0)"/>
<path d="" fill="#311B04" transform="translate(0,0)"/>
<path d="" fill="#311B04" transform="translate(0,0)"/>
<path d="" fill="#311B04" transform="translate(0,0)"/>
<path d="" fill="#311B04" transform="translate(0,0)"/>
<path d="" fill="#311B04" transform="translate(0,0)"/>
<path d="" fill="#311B04" transform="translate(0,0)"/>
<path d="" fill="#311B04" transform="translate(0,0)"/>
<path d="" fill="#311B04" transform="translate(0,0)"/>
<path d="" fill="#311B04" transform="translate(0,0)"/>
<path d="" fill="#311B04" transform="translate(0,0)"/>
<path d="" fill="#311B04" transform="translate(0,0)"/>
<path d="" fill="#311B04" transform="translate(0,0)"/>
<path d="" fill="#311B04" transform="translate(0,0)"/>
<path d="" fill="#311B04" transform="translate(0,0)"/>
<path d="" fill="#311B04" transform="translate(0,0)"/>
<path d="" fill="#311B04" transform="translate(0,0)"/>
<path d="" fill="#311B04" transform="translate(0,0)"/>
<path d="" fill="#311B04" transform="translate(0,0)"/>
<path d="" fill="#311B04" transform="translate(0,0)"/>
<path d="" fill="#311B04" transform="translate(0,0)"/>
<path d="" fill="#311B04" transform="translate(0,0)"/>
<path d="" fill="#311B04" transform="translate(0,0)"/>
<path d="" fill="#311B04" transform="translate(0,0)"/>
<path d="" fill="#311B04" transform="translate(0,0)"/>
<path d="" fill="#311B04" transform="translate(0,0)"/>
<path d="" fill="#311B04" transform="translate(0,0)"/>
<path d="" fill="#311B04" transform="translate(0,0)"/>
<path d="" fill="#311B04" transform="translate(0,0)"/>
<path d="" fill="#311B04" transform="translate(0,0)"/>
<path d="" fill="#311B04" transform="translate(0,0)"/>
<path d="" fill="#311B04" transform="translate(0,0)"/>
<path d="" fill="#311B04" transform="translate(0,0)"/>
<path d="" fill="#311B04" transform="translate(0,0)"/>
<path d="" fill="#311B04" transform="translate(0,0)"/>
<path d="" fill="#311B04" transform="translate(0,0)"/>
<path d="" fill="#311B04" transform="translate(0,0)"/>
<path d="" fill="#311B04" transform="translate(0,0)"/>
<path d="" fill="#311B04" transform="translate(0,0)"/>
<path d="" fill="#311B04" transform="translate(0,0)"/>
<path d="" fill="#311B04" transform="translate(0,0)"/>
<path d="" fill="#311B04" transform="translate(0,0)"/>
<path d="" fill="#311B04" transform="translate(0,0)"/>
<path d="" fill="#311B04" transform="translate(0,0)"/>
<path d="" fill="#311B04" transform="translate(0,0)"/>
<path d="" fill="#311B04" transform="translate(0,0)"/>
<path d="" fill="#311B04" transform="translate(0,0)"/>
<path d="" fill="#311B04" transform="translate(0,0)"/>
<path d="" fill="#311B04" transform="translate(0,0)"/>
<path d="" fill="#311B04" transform="translate(0,0)"/>
<path d="" fill="#311B04" transform="translate(0,0)"/>
<path d="" fill="#311B04" transform="translate(0,0)"/>
<path d="" fill="#311B04" transform="translate(0,0)"/>
<path d="" fill="#311B04" transform="translate(0,0)"/>
<path d="" fill="#311B04" transform="translate(0,0)"/>
<path d="" fill="#311B04" transform="translate(0,0)"/>
<path d="" fill="#311B04" transform="translate(0,0)"/>
<path d="" fill="#311B04" transform="translate(0,0)"/>
<path d="" fill="#311B04" transform="translate(0,0)"/>
<path d="" fill="#311B04" transform="translate(0,0)"/>
<path d="" fill="#311B04" transform="translate(0,0)"/>
<path d="" fill="#311B04" transform="translate(0,0)"/>
<path d="" fill="#311B04" transform="translate(0,0)"/>
<path d="" fill="#311B04" transform="translate(0,0)"/>
<path d="" fill="#311B04" transform="translate(0,0)"/>
<path d="" fill="#311B04" transform="translate(0,0)"/>
<path d="" fill="#311B04" transform="translate(0,0)"/>
<path d="" fill="#311B04" transform="translate(0,0)"/>
<path d="" fill="#311B04" transform="translate(0,0)"/>
<path d="" fill="#311B04" transform="translate(0,0)"/>
<path d="" fill="#311B04" transform="translate(0,0)"/>
<path d="" fill="#311B04" transform="translate(0,0)"/>
<path d="" fill="#311B04" transform="translate(0,0)"/>
<path d="" fill="#311B04" transform="translate(0,0)"/>
<path d="" fill="#311B04" transform="translate(0,0)"/>
<path d="" fill="#311B04" transform="translate(0,0)"/>
<path d="" fill="#311B04" transform="translate(0,0)"/>
<path d="" fill="#311B04" transform="translate(0,0)"/>
<path d="" fill="#311B04" transform="translate(0,0)"/>
<path d="" fill="#311B04" transform="translate(0,0)"/>
<path d="" fill="#311B04" transform="translate(0,0)"/>
<path d="" fill="#311B04" transform="translate(0,0)"/>
<path d="" fill="#311B04" transform="translate(0,0)"/>
<path d="" fill="#311B04" transform="translate(0,0)"/>
<path d="" fill="#311B04" transform="translate(0,0)"/>
<path d="" fill="#311B04" transform="translate(0,0)"/>
<path d="" fill="#311B04" transform="translate(0,0)"/>
<path d="" fill="#311B04" transform="translate(0,0)"/>
<path d="" fill="#311B04" transform="translate(0,0)"/>
<path d="" fill="#311B04" transform="translate(0,0)"/>
<path d="" fill="#311B04" transform="translate(0,0)"/>
<path d="" fill="#311B04" transform="translate(0,0)"/>
<path d="" fill="#311B04" transform="translate(0,0)"/>
<path d="" fill="#311B04" transform="translate(0,0)"/>
<path d="" fill="#311B04" transform="translate(0,0)"/>
<path d="" fill="#311B04" transform="translate(0,0)"/>
<path d="" fill="#311B04" transform="translate(0,0)"/>
<path d="" fill="#311B04" transform="translate(0,0)"/>
<path d="" fill="#311B04" transform="translate(0,0)"/>
<path d="" fill="#311B04" transform="translate(0,0)"/>
<path d="" fill="#311B04" transform="translate(0,0)"/>
<path d="" fill="#311B04" transform="translate(0,0)"/>
<path d="" fill="#311B04" transform="translate(0,0)"/>
<path d="" fill="#311B04" transform="translate(0,0)"/>
<path d="" fill="#311B04" transform="translate(0,0)"/>
<path d="" fill="#311B04" transform="translate(0,0)"/>
<path d="" fill="#311B04" transform="translate(0,0)"/>
<path d="" fill="#311B04" transform="translate(0,0)"/>
<path d="" fill="#311B04" transform="translate(0,0)"/>
<path d="" fill="#311B04" transform="translate(0,0)"/>
<path d="" fill="#311B04" transform="translate(0,0)"/>
<path d="" fill="#311B04" transform="translate(0,0)"/>
<path d="" fill="#311B04" transform="translate(0,0)"/>
<path d="" fill="#311B04" transform="translate(0,0)"/>
<path d="" fill="#311B04" transform="translate(0,0)"/>
<path d="" fill="#311B04" transform="translate(0,0)"/>
<path d="" fill="#311B04" transform="translate(0,0)"/>
<path d="" fill="#311B04" transform="translate(0,0)"/>
<path d="" fill="#311B04" transform="translate(0,0)"/>
<path d="" fill="#311B04" transform="translate(0,0)"/>
<path d="" fill="#311B04" transform="translate(0,0)"/>
<path d="" fill="#311B04" transform="translate(0,0)"/>
<path d="" fill="#311B04" transform="translate(0,0)"/>
<path d="" fill="#311B04" transform="translate(0,0)"/>
<path d="" fill="#311B04" transform="translate(0,0)"/>
<path d="" fill="#311B04" transform="translate(0,0)"/>
<path d="" fill="#311B04" transform="translate(0,0)"/>
<path d="" fill="#311B04" transform="translate(0,0)"/>
<path d="" fill="#311B04" transform="translate(0,0)"/>
<path d="" fill="#311B04" transform="translate(0,0)"/>
<path d="" fill="#311B04" transform="translate(0,0)"/>
<path d="" fill="#311B04" transform="translate(0,0)"/>
<path d="" fill="#311B04" transform="translate(0,0)"/>
<path d="" fill="#311B04" transform="translate(0,0)"/>
<path d="" fill="#311B04" transform="translate(0,0)"/>
<path d="" fill="#311B04" transform="translate(0,0)"/>
<path d="" fill="#311B04" transform="translate(0,0)"/>
<path d="" fill="#311B04" transform="translate(0,0)"/>
<path d="" fill="#311B04" transform="translate(0,0)"/>
<path d="" fill="#311B04" transform="translate(0,0)"/>
<path d="" fill="#311B04" transform="translate(0,0)"/>
<path d="" fill="#311B04" transform="translate(0,0)"/>
<path d="" fill="#311B04" transform="translate(0,0)"/>
<path d="" fill="#311B04" transform="translate(0,0)"/>
<path d="" fill="#311B04" transform="translate(0,0)"/>
<path d="" fill="#311B04" transform="translate(0,0)"/>
<path d="" fill="#311B04" transform="translate(0,0)"/>
<path d="" fill="#311B04" transform="translate(0,0)"/>
<path d="" fill="#311B04" transform="translate(0,0)"/>
<path d="" fill="#311B04" transform="translate(0,0)"/>
<path d="" fill="#311B04" transform="translate(0,0)"/>
<path d="" fill="#311B04" transform="translate(0,0)"/>
<path d="" fill="#311B04" transform="translate(0,0)"/>
<path d="" fill="#311B04" transform="translate(0,0)"/>
<path d="" fill="#311B04" transform="translate(0,0)"/>
<path d="" fill="#311B04" transform="translate(0,0)"/>
<path d="" fill="#311B04" transform="translate(0,0)"/>
<path d="" fill="#311B04" transform="translate(0,0)"/>
<path d="" fill="#311B04" transform="translate(0,0)"/>
<path d="" fill="#311B04" transform="translate(0,0)"/>
<path d="" fill="#311B04" transform="translate(0,0)"/>
<path d="" fill="#311B04" transform="translate(0,0)"/>
<path d="" fill="#311B04" transform="translate(0,0)"/>
<path d="" fill="#311B04" transform="translate(0,0)"/>
<path d="" fill="#311B04" transform="translate(0,0)"/>
<path d="" fill="#311B04" transform="translate(0,0)"/>
<path d="" fill="#311B04" transform="translate(0,0)"/>
<path d="" fill="#311B04" transform="translate(0,0)"/>
<path d="" fill="#311B04" transform="translate(0,0)"/>
<path d="" fill="#311B04" transform="translate(0,0)"/>
<path d="" fill="#311B04" transform="translate(0,0)"/>
<path d="" fill="#311B04" transform="translate(0,0)"/>
<path d="" fill="#311B04" transform="translate(0,0)"/>
<path d="" fill="#311B04" transform="translate(0,0)"/>
<path d="" fill="#311B04" transform="translate(0,0)"/>
<path d="" fill="#311B04" transform="translate(0,0)"/>
<path d="" fill="#311B04" transform="translate(0,0)"/>
<path d="" fill="#311B04" transform="translate(0,0)"/>
<path d="" fill="#311B04" transform="translate(0,0)"/>
<path d="" fill="#311B04" transform="translate(0,0)"/>
<path d="" fill="#311B04" transform="translate(0,0)"/>
<path d="" fill="#311B04" transform="translate(0,0)"/>
<path d="" fill="#311B04" transform="translate(0,0)"/>
<path d="" fill="#311B04" transform="translate(0,0)"/>
<path d="" fill="#311B04" transform="translate(0,0)"/>
<path d="" fill="#311B04" transform="translate(0,0)"/>
<path d="" fill="#311B04" transform="translate(0,0)"/>
<path d="" fill="#311B04" transform="translate(0,0)"/>
<path d="" fill="#311B04" transform="translate(0,0)"/>
<path d="" fill="#311B04" transform="translate(0,0)"/>
<path d="" fill="#311B04" transform="translate(0,0)"/>
<path d="" fill="#311B04" transform="translate(0,0)"/>
<path d="" fill="#311B04" transform="translate(0,0)"/>
<path d="" fill="#311B04" transform="translate(0,0)"/>
<path d="" fill="#311B04" transform="translate(0,0)"/>
<path d="" fill="#311B04" transform="translate(0,0)"/>
<path d="" fill="#311B04" transform="translate(0,0)"/>
<path d="" fill="#311B04" transform="translate(0,0)"/>
<path d="" fill="#311B04" transform="translate(0,0)"/>
<path d="" fill="#311B04" transform="translate(0,0)"/>
<path d="" fill="#311B04" transform="translate(0,0)"/>
<path d="" fill="#311B04" transform="translate(0,0)"/>
<path d="" fill="#311B04" transform="translate(0,0)"/>
<path d="" fill="#311B04" transform="translate(0,0)"/>
<path d="" fill="#311B04" transform="translate(0,0)"/>
<path d="" fill="#311B04" transform="translate(0,0)"/>
<path d="" fill="#311B04" transform="translate(0,0)"/>
<path d="" fill="#311B04" transform="translate(0,0)"/>
<path d="" fill="#311B04" transform="translate(0,0)"/>
<path d="" fill="#311B04" transform="translate(0,0)"/>
<path d="" fill="#311B04" transform="translate(0,0)"/>
<path d="" fill="#311B04" transform="translate(0,0)"/>
<path d="" fill="#311B04" transform="translate(0,0)"/>
<path d="" fill="#311B04" transform="translate(0,0)"/>
<path d="" fill="#311B04" transform="translate(0,0)"/>
<path d="" fill="#311B04" transform="translate(0,0)"/>
<path d="" fill="#311B04" transform="translate(0,0)"/>
<path d="" fill="#311B04" transform="translate(0,0)"/>
<path d="" fill="#311B04" transform="translate(0,0)"/>
<path d="" fill="#311B04" transform="translate(0,0)"/>
<path d="" fill="#311B04" transform="translate(0,0)"/>
<path d="" fill="#311B04" transform="translate(0,0)"/>
<path d="" fill="#311B04" transform="translate(0,0)"/>
<path d="" fill="#311B04" transform="translate(0,0)"/>
<path d="" fill="#311B04" transform="translate(0,0)"/>
<path d="" fill="#311B04" transform="translate(0,0)"/>
<path d="" fill="#311B04" transform="translate(0,0)"/>
<path d="" fill="#311B04" transform="translate(0,0)"/>
<path d="" fill="#311B04" transform="translate(0,0)"/>
<path d="" fill="#311B04" transform="translate(0,0)"/>
<path d="" fill="#311B04" transform="translate(0,0)"/>
<path d="" fill="#311B04" transform="translate(0,0)"/>
<path d="" fill="#311B04" transform="translate(0,0)"/>
<path d="" fill="#311B04" transform="translate(0,0)"/>
<path d="" fill="#311B04" transform="translate(0,0)"/>
<path d="" fill="#311B04" transform="translate(0,0)"/>
<path d="" fill="#311B04" transform="translate(0,0)"/>
<path d="" fill="#311B04" transform="translate(0,0)"/>
<path d="" fill="#311B04" transform="translate(0,0)"/>
<path d="" fill="#311B04" transform="translate(0,0)"/>
<path d="" fill="#311B04" transform="translate(0,0)"/>
<path d="" fill="#311B04" transform="translate(0,0)"/>
<path d="" fill="#311B04" transform="translate(0,0)"/>
<path d="" fill="#311B04" transform="translate(0,0)"/>
<path d="" fill="#311B04" transform="translate(0,0)"/>
<path d="" fill="#311B04" transform="translate(0,0)"/>
<path d="" fill="#311B04" transform="translate(0,0)"/>
<path d="" fill="#311B04" transform="translate(0,0)"/>
<path d="" fill="#311B04" transform="translate(0,0)"/>
<path d="" fill="#311B04" transform="translate(0,0)"/>
<path d="" fill="#311B04" transform="translate(0,0)"/>
<path d="" fill="#311B04" transform="translate(0,0)"/>
<path d="" fill="#311B04" transform="translate(0,0)"/>
<path d="" fill="#311B04" transform="translate(0,0)"/>
<path d="" fill="#311B04" transform="translate(0,0)"/>
<path d="" fill="#311B04" transform="translate(0,0)"/>
<path d="" fill="#311B04" transform="translate(0,0)"/>
<path d="" fill="#311B04" transform="translate(0,0)"/>
<path d="" fill="#311B04" transform="translate(0,0)"/>
<path d="" fill="#311B04" transform="translate(0,0)"/>
<path d="" fill="#311B04" transform="translate(0,0)"/>
<path d="" fill="#311B04" transform="translate(0,0)"/>
<path d="" fill="#311B04" transform="translate(0,0)"/>
<path d="" fill="#311B04" transform="translate(0,0)"/>
<path d="" fill="#311B04" transform="translate(0,0)"/>
<path d="" fill="#311B04" transform="translate(0,0)"/>
<path d="" fill="#311B04" transform="translate(0,0)"/>
<path d="" fill="#311B04" transform="translate(0,0)"/>
<path d="" fill="#311B04" transform="translate(0,0)"/>
<path d="" fill="#311B04" transform="translate(0,0)"/>
<path d="" fill="#311B04" transform="translate(0,0)"/>
<path d="" fill="#311B04" transform="translate(0,0)"/>
<path d="" fill="#311B04" transform="translate(0,0)"/>
<path d="" fill="#311B04" transform="translate(0,0)"/>
<path d="" fill="#311B04" transform="translate(0,0)"/>
<path d="" fill="#311B04" transform="translate(0,0)"/>
<path d="" fill="#311B04" transform="translate(0,0)"/>
<path d="" fill="#311B04" transform="translate(0,0)"/>
<path d="" fill="#311B04" transform="translate(0,0)"/>
<path d="" fill="#311B04" transform="translate(0,0)"/>
<path d="" fill="#311B04" transform="translate(0,0)"/>
<path d="" fill="#311B04" transform="translate(0,0)"/>
<path d="" fill="#311B04" transform="translate(0,0)"/>
<path d="" fill="#311B04" transform="translate(0,0)"/>
<path d="" fill="#311B04" transform="translate(0,0)"/>
<path d="" fill="#311B04" transform="translate(0,0)"/>
<path d="" fill="#311B04" transform="translate(0,0)"/>
<path d="" fill="#311B04" transform="translate(0,0)"/>
<path d="" fill="#311B04" transform="translate(0,0)"/>
<path d="" fill="#311B04" transform="translate(0,0)"/>
<path d="" fill="#311B04" transform="translate(0,0)"/>
<path d="" fill="#311B04" transform="translate(0,0)"/>
<path d="" fill="#311B04" transform="translate(0,0)"/>
<path d="" fill="#311B04" transform="translate(0,0)"/>
<path d="" fill="#311B04" transform="translate(0,0)"/>
<path d="" fill="#311B04" transform="translate(0,0)"/>
<path d="" fill="#311B04" transform="translate(0,0)"/>
<path d="" fill="#311B04" transform="translate(0,0)"/>
<path d="" fill="#311B04" transform="translate(0,0)"/>
<path d="" fill="#311B04" transform="translate(0,0)"/>
<path d="" fill="#311B04" transform="translate(0,0)"/>
<path d="" fill="#311B04" transform="translate(0,0)"/>
<path d="" fill="#311B04" transform="translate(0,0)"/>
<path d="" fill="#311B04" transform="translate(0,0)"/>
<path d="" fill="#311B04" transform="translate(0,0)"/>
<path d="" fill="#311B04" transform="translate(0,0)"/>
<path d="" fill="#311B04" transform="translate(0,0)"/>
<path d="" fill="#311B04" transform="translate(0,0)"/>
<path d="" fill="#311B04" transform="translate(0,0)"/>
<path d="" fill="#311B04" transform="translate(0,0)"/>
<path d="" fill="#311B04" transform="translate(0,0)"/>
<path d="" fill="#311B04" transform="translate(0,0)"/>
<path d="" fill="#311B04" transform="translate(0,0)"/>
<path d="" fill="#311B04" transform="translate(0,0)"/>
<path d="" fill="#311B04" transform="translate(0,0)"/>
<path d="" fill="#311B04" transform="translate(0,0)"/>
<path d="" fill="#311B04" transform="translate(0,0)"/>
</svg>