<?xml version="1.0" encoding="UTF-8"?>
<svg id="Livello_2" data-name="Livello 2" xmlns="http://www.w3.org/2000/svg" viewBox="0 0 528.71 146.29">
  <defs>
    <style>
      .cls-1 {
        fill: #fff;
      }
    </style>
  </defs>
  <g id="Livello_1-2" data-name="Livello 1">
    <g>
      <path d="M113.88,146.29c-9.03,0-18.41-.39-27.48-.77-6.4-.27-12.45-.52-18.35-.64-.59-.01-1.19-.02-1.82-.02-2.74,0-5.84.11-9.12.22-3.82.13-7.77.27-11.85.27-14.85,0-32.75-1.74-39.44-15.35C-1.62,114.84-.1,57.7.67,44.36,1.55,29.33,2.75,8.74,23.83,3.75,34.31,1.26,52.34,0,77.43,0c14.19,0,30.61.41,48.8,1.21,27.77,1.23,36.27,13.46,47.02,28.96,3.67,5.29,7.46,10.76,12.46,16.51,10,11.51,18.74,15.82,36,17.71l3.33.17-.76,14.87-2.45.34c-15.11,2.11-25.33,6.95-33.14,15.7-5.73,6.42-9.95,12.86-14.03,19.1-10.45,15.97-19.47,29.76-47.41,31.36-4.08.23-8.45.35-13.37.35Z"/>
      <path class="cls-1" d="M183.58,48.54c-20.01-23.05-22.08-42.94-57.47-44.5-24.98-1.1-78.92-2.92-101.63,2.46C5.96,10.9,4.46,28.08,3.5,44.53c-1,17.25-1.91,70.44,4.86,84.22,9,18.32,42.3,12.93,59.74,13.29,18.84.39,40.28,2.14,58.98,1.07,36.99-2.12,38.74-26.28,59.49-49.51,9.38-10.5,21.18-14.71,34.87-16.62l-.03-9.77c-16.8-1.85-26.82-5.99-37.83-18.67ZM170.97,41.65c6.53,7.62,12.78,15.68,21.58,20.92-2.11.95-5.86-2.23-7.47-3.53-13.25-10.64-22.54-28.25-35.5-39.5l-12.02-6.47c15.89,1.07,24.05,17.65,33.41,28.57ZM105.69,79.71c-1.37.73-2.28,1.78-4.14,1.35l25.68-17.81,5.32-2.17c-8.29,5.97-17.95,13.86-26.86,18.63ZM119.54,81.07c-.29,2.49-4.17,4.98-6.08,6.41-4.61,3.46-10.67,7.09-15.91,9.58,6.46-6.14,14.69-10.76,21.99-15.99ZM127.55,53.06c7.32-6.16,16.14-12.01,25-15.98-7.56,6.06-16.17,12.01-25,15.98ZM158.55,70.08c-8.62,7.58-19.63,12.65-28.97,19.52l-4.03,1.46c10.44-7.69,21.32-15.34,33-20.98ZM150.55,66.06c3.85-4.22,10.5-8.43,15.99-9.98l-7.68,5.8-8.31,4.18ZM131.55,24.08c-17.15,11.6-34.38,23.66-52.08,34.41-4.02,2.44-8.32,5.41-12.92,6.57,12.42-8.79,25.19-17.32,38.08-25.41,8.72-5.47,17.6-11.15,26.91-15.57ZM111.02,23.04c2.89-1.79,6.23-4.23,9.53-4.96-4.71,4.85-11.34,8.63-17.08,12.41-9.16,6.02-18.66,12.31-28,18-2.71,1.65-5.81,3.97-8.91,4.58,14.56-10.23,29.34-20.64,44.47-30.02ZM22.24,21.26l7.3-3.18c-3.32,3.68-8.14,6.79-12.99,7.99l5.69-4.8ZM35.55,22.08c-6.07,5.85-14.31,10.64-22,13.98,5.99-5.55,14.37-10.87,22-13.98ZM15.44,51.49c12.5-9.18,26.18-16.88,39.1-25.42l-2.27,3.22c-4.54,1.64-36.99,26.29-38.72,24.77-1.74-1.53,1.35-2.18,1.89-2.57ZM15.23,63.25l54.32-33.17-3.27,3.22c-18.11,10.48-34.49,24.35-53.73,32.76l2.68-2.81ZM10.55,91.06c2.84-3.62,7.33-6.75,11.09-9.4,7.47-5.25,16.46-11.39,24.91-14.58l-36,23.98ZM14.55,99.06c3.22-4.85,8.21-7.91,12.99-10.99,1,1.07-7.35,8.12-8.51,8.98-1.33.99-2.65,2.25-4.48,2.01ZM37.24,99.26c10.3-6.98,20.9-13.93,31.4-20.6,6.39-4.06,13.06-8.35,19.91-11.57l-2.67,2.82L16.55,115.06c5.53-6.16,13.7-11.07,20.69-15.8ZM25.55,121.06c8.85-7.09,18.62-13.94,28.09-20.4,4.95-3.38,10.39-7.54,15.91-9.58-10.74,8.57-22.51,16.79-34.08,24.41-2.99,1.96-6.5,4.73-9.91,5.58ZM81.55,95.08c-8.79,7.05-18.67,14.15-29,18.98,8.98-7.11,18.64-14.04,29-18.98ZM41.55,134.06l21.99-13.98c-6.12,5.57-13.98,11.95-21.99,13.98ZM56.56,135.07l1.88-2.58,18.11-11.41c-5.49,6.06-13.08,9.86-19.99,13.99ZM78.55,133.06c7.16-5.64,15.01-10.89,22.68-15.81,4.46-2.86,9.37-6.37,14.31-8.17-6.75,5.98-15.3,11.6-23.08,16.41-4.27,2.64-9.28,5.72-13.92,7.57ZM105.55,129.06c4.28-4.49,10.3-8.6,16-10.98-4.28,4.49-10.3,8.6-16,10.98ZM124.55,137.06l23.1-16.39,3.9-1.59c-8.06,6.81-17.18,14.04-27,17.98ZM178.58,95.6c-6.95,8.58-13.32,19.39-20.52,27.48-2.98,3.35-7.11,7.74-11.51,8.98,14.74-12.27,23.41-30.2,36.49-44,.85-.9,4.4-5.01,5.51-3.98.77.72-9.08,10.43-9.97,11.52ZM196.1,73.12l-7.54-.06c-.06-.93,5.2-1.99,5.49-1.99h17.5l-15.45,2.05Z"/>
      <polygon points="462.05 80.57 227.12 79.92 223.05 79.57 223.05 64.57 462.05 65.57 462.05 80.57"/>
      <path class="cls-1" d="M226.55,70.07h28v1h-28l.58,6.02h231.84s.59-3.02.59-3.02h-77v-1h77v-2h-78v-1h78v-1h-233v1ZM381.55,74.07h-119v-1h119v1ZM255.55,70.07h44v1h-44v-1Z"/>
      <path d="M462.05,65.57h19.33l.13,1.01c1.29-.38,2.8-.75,4.48-.99.83-.12,2.02-.32,3.45-.57,5.25-.91,14.05-2.43,21.74-2.43s12.85,1.55,15.52,4.73c1.21,1.44,2.51,3.97,1.82,7.83-1.05,5.96-6.34,8.99-15.72,8.99h0c-5.79,0-12.18-1.09-17.31-1.96-2.63-.45-4.9-.84-6.31-.93-1.68-.12-3.53-.17-5.64-.17-2.32,0-4.72.07-7.05.13-2.36.07-4.81.14-7.21.14-1.43,0-2.73-.02-3.96-.07-.39-.02-.76-.07-1.14-.17l-2.14-.53v-15ZM499.34,73.2c.04.08.12.21.3.4.85.94,5.04,2.25,10.68,2.25,5.07,0,7.67-1.07,8.08-1.56.21-.25.35-.5.45-.79l-.14-1.12c-1.09-1.44-4.17-2.34-8.07-2.34-6,0-10.67,2.03-11.3,3.17Z"/>
      <path class="cls-1" d="M486.04,68.07c-3.86.54-6.92,1.95-7.93,2.08-2.39.31-6.46.03-9.08-.08-1.22-.05-3.72.75-3.48-.99,3.15-.11,6.35.12,9.51-.01,1.23-.05,3.71.76,3.49-1h-14v10.01c8.02.39,16.51-.55,24.49,0,7.71.54,34.25,8.16,36.35-3.75,2.69-15.19-31.88-7.31-39.35-6.26ZM520.23,75.77c-3.19,3.82-19.59,3.21-23.04-.61-6.59-7.3,19.72-12.25,23.91-4.08l.29,2.28c-.2.92-.56,1.7-1.16,2.42Z"/>
    </g>
  </g>
</svg>