<svg id="Livello_2" data-name="Livello 2" xmlns="http://www.w3.org/2000/svg" viewBox="0 0 226.77 226.44">
  <g id="Livello_1-2" data-name="Livello 1">
    <g>
      <path d="M29.12,226.44c-.55-.48-2.64-2.2-2.64-2.81v-38.16H3.19c-1.03,0-3.51-2.46-3.15-3.78v-42.97c-.29-.97,2.25-3.46,2.82-3.46h23.62v-38.16c0-.61,2.53-2.88,3.22-3.06l193.16-.07c1.45.65,2.84,1.33,3.33,2.95l.16,43.79c.3,1.22-2.35,3.79-3.15,3.79h-23.29v31.71h23.29c.19,0,2.05,1.35,2.3,1.67.59.73.77,1.54.86,2.45,1.3,13.44-1.01,28.97,0,42.64-.22,1.86-1.2,2.56-2.65,3.46h-79.29c-2.44-1.46-3.64-4.54-1.98-7.1.35-.53,1.9-1.82,2.48-1.82h72.51v-32.04h-58.47c-1.36,3.5-2.62,7.13-4.13,10.57-1.27,2.89-2.35,6.92-5.93,7.29l-45.86-.1-2.84-2.45-6.33-15.31h-58.14v32.04h72.18c.58,0,2.13,1.28,2.48,1.82,1.62,2.5.6,5.82-1.98,7.1H29.12ZM93.87,103.22h-58.14v32.04h181.7v-32.04h-58.47c-.35,1.36-.93,3.01-1.49,4.29-1.11,2.55-4.25,10.92-5.8,12.37-.33.31-1.44,1.01-1.87,1.11l-46.99-.11-2.4-1.89-6.53-15.77ZM148.71,103.22h-44.6c.77,2.86,2.35,5.53,3.27,8.38l.52.23,37.3-.07c1.04-2.03,2.17-4.38,3.01-6.57.24-.64.56-1.26.5-1.97ZM67.44,144.51H8.97v31.71h181.7v-31.71h-58.14l-6.47,15.5c-1.13,1.57-2.05,1.89-3.93,2.02-14.45,1.01-30.05-.79-44.62,0-1.87.04-3.07-1.12-3.96-2.65l-6.1-14.88ZM122.28,144.51h-44.93l3.49,8.28,37.92-.06c1.35-2.55,2.52-5.43,3.51-8.21ZM149.04,185.48h-44.93c.86,2.8,2.3,5.54,3.27,8.38l.52.23,37.3-.07c1.55-2.63,2.37-5.8,3.84-8.54Z" fill="#311B04"/>
      <path d="M128.23,226.44h-3.63c-7.33-4.45,1.52-13.27,5.76-6.91,1.88,2.82.51,5.38-2.12,6.91Z" fill="#311B04"/>
      <path d="M91.35,77.25c-1.93,1.8-2.52,2.86-5.58,2.52-2.61-.29-4.18-2.99-3.77-5.44.35-2.08,2.56-3.11,3.76-4.49,3.75-4.34,6.07-9.82,4.78-15.64-1.93-8.72-9.7-11.53-13.79-18.59-6.56-11.35-3.85-25.98,6.38-34.15,3.63-2.9,8.54-1.18,8.11,3.8-.23,2.62-3.67,4.57-5.23,6.67-4.09,5.48-4.46,12.92-1.1,18.83,2.74,4.83,7.81,7.45,10.9,12.22,7.41,11.43,5.36,25.13-4.44,34.26Z" fill="#311B04"/>
      <path d="M126.7,77.25c-.66.61-1.53,1.73-2.35,2.11-4.78,2.22-9.18-2.78-5.86-7.18.51-.67,1.91-1.5,2.46-2.15,4.99-5.91,7.06-12.34,3.56-19.74-2.75-5.8-9.12-8.94-12.41-14.68-6.51-11.31-3.83-26,6.38-34.15,3.63-2.9,8.54-1.18,8.11,3.8-.23,2.62-3.67,4.57-5.23,6.67-4.09,5.49-4.45,12.91-1.11,18.84,2.7,4.79,7.82,7.46,10.91,12.22,7.42,11.45,5.37,25.12-4.44,34.26Z" fill="#311B04"/>
      <path d="M162.05,77.25c-.66.61-1.53,1.73-2.35,2.11-4.78,2.22-9.18-2.78-5.86-7.18.51-.67,1.91-1.5,2.46-2.15,5.06-5.99,6.91-11.97,3.65-19.5-2.54-5.87-9.14-9.13-12.51-14.91-6.42-11.02-3.68-26.81,6.72-34.47,3.55-2.61,8.17-.54,7.76,4.12-.23,2.65-3.54,4.43-5.1,6.47-4.18,5.47-4.59,13.09-1.24,19.04,2.7,4.8,7.82,7.46,10.91,12.22,7.42,11.45,5.37,25.12-4.44,34.26Z" fill="#311B04"/>
    </g>
  </g>
</svg>